<svg width="359" height="179" viewBox="0 0 359 179" fill="none" xmlns="http://www.w3.org/2000/svg">
<g filter="url(#filter0_d_1269_2974)">
<rect opacity="0.8" width="350" height="170" rx="10" transform="matrix(-1 0 0 1 352.753 2.12988)" fill="url(#paint0_linear_1269_2974)"/>
<mask id="mask0_1269_2974" style="mask-type:alpha" maskUnits="userSpaceOnUse" x="2" y="2" width="351" height="171">
<rect width="350" height="170" rx="10" transform="matrix(-1 0 0 1 352.753 2.12988)" fill="url(#paint1_linear_1269_2974)"/>
</mask>
<g mask="url(#mask0_1269_2974)">
<path fill-rule="evenodd" clip-rule="evenodd" d="M310.863 9.56329C316.607 3.7927 325.8 3.53864 331.704 8.69012L332.634 9.55716L336.3 13.2228C337.559 14.476 339.211 15.2486 340.967 15.4222L341.726 15.4596H346.969C355.148 15.4596 361.837 21.8559 362.304 29.9185L362.33 30.821V36.0587C362.33 37.8427 362.945 39.5577 364.055 40.9214L364.561 41.4835L368.226 45.1494C373.997 50.8941 374.255 60.0808 368.968 66.1349L368.278 66.8749L364.564 70.5896C363.314 71.842 362.541 73.4948 362.368 75.2499L362.33 76.0074V81.2554C362.33 89.4345 355.934 96.1186 347.871 96.5856L346.969 96.6116H341.726C339.948 96.6116 338.231 97.2294 336.867 98.3422L336.304 98.849L332.643 102.505C326.905 108.283 317.712 108.539 311.655 103.25L310.869 102.514L307.212 98.8567C305.945 97.5988 304.29 96.8233 302.538 96.6491L301.782 96.6116H296.535C288.358 96.6116 281.672 90.2187 281.204 82.1577L281.178 81.2554V76.0074C281.178 74.2327 280.56 72.5137 279.447 71.1519L278.941 70.591L275.284 66.9284C269.507 61.1848 269.251 51.9913 274.54 45.9409L275.23 45.2014L278.933 41.4931C280.193 40.2247 280.967 38.5732 281.141 36.817L281.178 36.0587V30.821L281.204 29.9186C281.654 22.1555 287.872 15.9358 295.632 15.4857L296.535 15.4596H301.782C303.56 15.4596 305.277 14.8431 306.639 13.7355L307.2 13.2311L310.863 9.56329ZM327.388 15.1207L327.185 14.9319C324.358 12.1178 319.891 11.9531 316.865 14.4333L316.28 14.9647L312.602 18.6482C309.964 21.2675 306.475 22.8336 302.791 23.0764L301.782 23.1096H296.534C292.518 23.1096 289.214 26.1908 288.86 30.1193L288.828 30.8209V36.0587C288.828 39.7775 287.479 43.3533 285.045 46.1485L284.354 46.891L280.645 50.6047C277.831 53.4317 277.667 57.8977 280.154 60.9273L280.687 61.5132L284.355 65.1866C286.979 67.8163 288.551 71.3115 288.795 74.9978L288.828 76.0074V81.2553C288.828 85.2743 291.907 88.5756 295.833 88.93L296.534 88.9615H301.782C305.494 88.9615 309.073 90.3125 311.869 92.747L312.611 93.4377L316.3 97.1266C319.147 99.9576 323.614 100.122 326.641 97.6355L327.227 97.1027L330.903 93.4313C333.539 90.8084 337.029 89.2383 340.716 88.9948L341.726 88.9615H346.969C350.991 88.9615 354.294 85.884 354.648 81.9567L354.68 81.2553V76.0074C354.68 72.2902 356.03 68.7049 358.461 65.922L359.151 65.1834L362.861 61.4731C365.676 58.6428 365.839 54.1791 363.355 51.1506L362.823 50.5649L359.141 46.8832C356.521 44.2436 354.956 40.7581 354.713 37.0693L354.68 36.0587V30.8209C354.68 26.8 351.599 23.4959 347.67 23.1412L346.969 23.1096H341.726C338.007 23.1096 334.427 21.7612 331.637 19.3287L330.897 18.6386L327.388 15.1207ZM332.14 71.859C332.854 72.573 333.823 72.981 334.843 72.981C335.863 72.981 336.832 72.573 337.546 71.859C337.903 71.502 338.209 71.043 338.413 70.584C338.566 70.125 338.668 69.6711 338.668 69.156C338.668 68.646 338.566 68.136 338.413 67.677C338.209 67.218 337.903 66.81 337.546 66.453C336.118 65.025 333.568 65.025 332.14 66.453C331.783 66.81 331.528 67.218 331.324 67.677C331.12 68.136 331.018 68.646 331.018 69.156C331.018 69.6711 331.12 70.125 331.324 70.584C331.528 71.043 331.783 71.502 332.14 71.859ZM308.628 46.7689C308.118 46.7689 307.659 46.6618 307.2 46.4578C306.741 46.2538 306.282 46.0039 305.925 45.6469C305.568 45.2389 305.313 44.8309 305.109 44.3719C304.905 43.9078 304.803 43.4539 304.803 42.9439C304.803 42.4288 304.905 41.9239 305.109 41.4649C305.313 41.0059 305.568 40.5469 305.925 40.2409C307.404 38.8077 309.903 38.8077 311.331 40.2409C312.045 40.9498 312.453 41.9239 312.453 42.9439C312.453 43.4539 312.402 43.9078 312.198 44.3719C311.994 44.8309 311.688 45.2389 311.331 45.6469C310.974 46.0039 310.566 46.2538 310.107 46.4578C309.648 46.6618 309.138 46.7689 308.628 46.7689ZM337.564 40.2222C336.071 38.7285 333.649 38.7285 332.155 40.2222L305.941 66.4365L305.57 66.8655C304.459 68.3629 304.583 70.488 305.941 71.8459C307.435 73.3397 309.856 73.3397 311.35 71.8459L337.564 45.6317L337.935 45.2027C339.046 43.7052 338.922 41.5802 337.564 40.2222Z" fill="#723CE8"/>
<path fill-rule="evenodd" clip-rule="evenodd" d="M222.372 175.751C223.732 178.29 226.384 179.876 229.268 179.871C230.483 179.876 231.689 179.593 232.77 179.047L256.213 166.79C256.275 166.754 256.347 166.733 256.419 166.738L279.702 178.892C280.83 179.5 282.092 179.814 283.369 179.809C283.776 179.809 284.188 179.773 284.59 179.716C288.782 179.031 291.645 175.107 291.027 170.91L286.495 145.108C286.469 145.07 286.462 145.069 286.46 145.064C286.459 145.063 286.459 145.061 286.459 145.057C286.459 145.041 286.495 145.005 286.495 145.005L305.396 126.722C308.187 124.029 308.542 119.687 306.22 116.577C304.958 114.949 303.109 113.878 301.07 113.59L275 109.83C274.954 109.83 274.902 109.779 274.851 109.727L263.207 86.3461C261.893 83.7041 259.205 82.0355 256.254 82.02C255.399 82.02 254.544 82.1539 253.731 82.432C251.779 83.0964 250.167 84.4972 249.25 86.3461L237.621 109.66C237.621 109.768 237.513 109.815 237.41 109.815L211.403 113.574C209.811 113.842 208.328 114.553 207.128 115.634C205.609 117.123 204.754 119.167 204.754 121.299C204.759 123.323 205.573 125.26 207.02 126.671L226.075 145.005C226.116 145.046 226.132 145.103 226.132 145.16L221.543 170.858C221.27 172.537 221.564 174.257 222.372 175.751ZM256.105 89.5751L256.157 89.5391H256.254L256.301 89.5854C256.347 89.5854 256.388 89.5957 256.424 89.6266C256.455 89.6575 256.471 89.6987 256.466 89.7451L268.105 113.018C269.222 115.31 271.396 116.906 273.919 117.293L299.989 121.083C300.035 121.083 300.081 121.093 300.122 121.114C300.148 121.119 300.169 121.119 300.195 121.114L300.246 121.16L300.195 121.274L281.294 139.603C279.414 141.364 278.575 143.97 279.074 146.499L283.611 172.151L283.508 172.249H283.4C283.38 172.259 283.359 172.259 283.339 172.249C283.287 172.244 283.235 172.223 283.189 172.197H283.143L259.968 160.095C258.855 159.518 257.619 159.209 256.363 159.214C255.07 159.214 253.793 159.538 252.649 160.146L229.325 172.378C229.299 172.383 229.268 172.383 229.243 172.378C229.134 172.378 229.042 172.305 229.016 172.202V172.099L233.548 146.452C233.97 143.944 233.146 141.385 231.333 139.603L212.278 121.32C212.273 121.243 212.284 121.176 212.325 121.109L212.639 121.006L238.544 117.293C241.067 116.901 243.235 115.31 244.358 113.018L256.002 89.6884C256.028 89.6421 256.059 89.6009 256.105 89.5751Z" fill="#4C95EF"/>
</g>
<path d="M27.9849 147.13L26.0649 143.794H25.0209V147.13H23.6529V138.79H26.5329C27.1729 138.79 27.7129 138.902 28.1529 139.126C28.6009 139.35 28.9329 139.65 29.1489 140.026C29.3729 140.402 29.4849 140.822 29.4849 141.286C29.4849 141.83 29.3249 142.326 29.0049 142.774C28.6929 143.214 28.2089 143.514 27.5529 143.674L29.6169 147.13H27.9849ZM25.0209 142.702H26.5329C27.0449 142.702 27.4289 142.574 27.6849 142.318C27.9489 142.062 28.0809 141.718 28.0809 141.286C28.0809 140.854 27.9529 140.518 27.6969 140.278C27.4409 140.03 27.0529 139.906 26.5329 139.906H25.0209V142.702ZM37.295 143.662C37.295 143.91 37.279 144.134 37.247 144.334H32.195C32.235 144.862 32.431 145.286 32.783 145.606C33.135 145.926 33.567 146.086 34.079 146.086C34.815 146.086 35.335 145.778 35.639 145.162H37.115C36.915 145.77 36.551 146.27 36.023 146.662C35.503 147.046 34.855 147.238 34.079 147.238C33.447 147.238 32.879 147.098 32.375 146.818C31.879 146.53 31.487 146.13 31.199 145.618C30.919 145.098 30.779 144.498 30.779 143.818C30.779 143.138 30.915 142.542 31.187 142.03C31.467 141.51 31.855 141.11 32.351 140.83C32.855 140.55 33.431 140.41 34.079 140.41C34.703 140.41 35.259 140.546 35.747 140.818C36.235 141.09 36.615 141.474 36.887 141.97C37.159 142.458 37.295 143.022 37.295 143.662ZM35.867 143.23C35.859 142.726 35.679 142.322 35.327 142.018C34.975 141.714 34.539 141.562 34.019 141.562C33.547 141.562 33.143 141.714 32.807 142.018C32.471 142.314 32.271 142.718 32.207 143.23H35.867ZM38.1852 143.794C38.1852 143.13 38.3212 142.542 38.5932 142.03C38.8732 141.518 39.2492 141.122 39.7212 140.842C40.2012 140.554 40.7332 140.41 41.3172 140.41C41.7492 140.41 42.1732 140.506 42.5892 140.698C43.0132 140.882 43.3492 141.13 43.5972 141.442V138.25H44.9772V147.13H43.5972V146.134C43.3732 146.454 43.0612 146.718 42.6612 146.926C42.2692 147.134 41.8172 147.238 41.3052 147.238C40.7292 147.238 40.2012 147.094 39.7212 146.806C39.2492 146.51 38.8732 146.102 38.5932 145.582C38.3212 145.054 38.1852 144.458 38.1852 143.794ZM43.5972 143.818C43.5972 143.362 43.5012 142.966 43.3092 142.63C43.1252 142.294 42.8812 142.038 42.5772 141.862C42.2732 141.686 41.9452 141.598 41.5932 141.598C41.2412 141.598 40.9132 141.686 40.6092 141.862C40.3052 142.03 40.0572 142.282 39.8652 142.618C39.6812 142.946 39.5892 143.338 39.5892 143.794C39.5892 144.25 39.6812 144.65 39.8652 144.994C40.0572 145.338 40.3052 145.602 40.6092 145.786C40.9212 145.962 41.2492 146.05 41.5932 146.05C41.9452 146.05 42.2732 145.962 42.5772 145.786C42.8812 145.61 43.1252 145.354 43.3092 145.018C43.5012 144.674 43.5972 144.274 43.5972 143.818ZM52.834 143.662C52.834 143.91 52.818 144.134 52.786 144.334H47.734C47.774 144.862 47.97 145.286 48.322 145.606C48.674 145.926 49.106 146.086 49.618 146.086C50.354 146.086 50.874 145.778 51.178 145.162H52.654C52.454 145.77 52.09 146.27 51.562 146.662C51.042 147.046 50.394 147.238 49.618 147.238C48.986 147.238 48.418 147.098 47.914 146.818C47.418 146.53 47.026 146.13 46.738 145.618C46.458 145.098 46.318 144.498 46.318 143.818C46.318 143.138 46.454 142.542 46.726 142.03C47.006 141.51 47.394 141.11 47.89 140.83C48.394 140.55 48.97 140.41 49.618 140.41C50.242 140.41 50.798 140.546 51.286 140.818C51.774 141.09 52.154 141.474 52.426 141.97C52.698 142.458 52.834 143.022 52.834 143.662ZM51.406 143.23C51.398 142.726 51.218 142.322 50.866 142.018C50.514 141.714 50.078 141.562 49.558 141.562C49.086 141.562 48.682 141.714 48.346 142.018C48.01 142.314 47.81 142.718 47.746 143.23H51.406ZM60.2403 143.662C60.2403 143.91 60.2243 144.134 60.1923 144.334H55.1403C55.1803 144.862 55.3763 145.286 55.7283 145.606C56.0803 145.926 56.5123 146.086 57.0243 146.086C57.7603 146.086 58.2803 145.778 58.5843 145.162H60.0603C59.8603 145.77 59.4963 146.27 58.9683 146.662C58.4483 147.046 57.8003 147.238 57.0243 147.238C56.3923 147.238 55.8243 147.098 55.3203 146.818C54.8243 146.53 54.4323 146.13 54.1443 145.618C53.8643 145.098 53.7243 144.498 53.7243 143.818C53.7243 143.138 53.8603 142.542 54.1323 142.03C54.4123 141.51 54.8003 141.11 55.2963 140.83C55.8003 140.55 56.3763 140.41 57.0243 140.41C57.6483 140.41 58.2043 140.546 58.6923 140.818C59.1803 141.09 59.5603 141.474 59.8323 141.97C60.1043 142.458 60.2403 143.022 60.2403 143.662ZM58.8123 143.23C58.8043 142.726 58.6243 142.322 58.2723 142.018C57.9203 141.714 57.4843 141.562 56.9643 141.562C56.4923 141.562 56.0883 141.714 55.7523 142.018C55.4163 142.314 55.2163 142.718 55.1523 143.23H58.8123ZM69.5905 140.41C70.1105 140.41 70.5745 140.518 70.9825 140.734C71.3985 140.95 71.7225 141.27 71.9545 141.694C72.1945 142.118 72.3145 142.63 72.3145 143.23V147.13H70.9585V143.434C70.9585 142.842 70.8105 142.39 70.5145 142.078C70.2185 141.758 69.8145 141.598 69.3025 141.598C68.7905 141.598 68.3825 141.758 68.0785 142.078C67.7825 142.39 67.6345 142.842 67.6345 143.434V147.13H66.2785V143.434C66.2785 142.842 66.1305 142.39 65.8345 142.078C65.5385 141.758 65.1345 141.598 64.6225 141.598C64.1105 141.598 63.7025 141.758 63.3985 142.078C63.1025 142.39 62.9545 142.842 62.9545 143.434V147.13H61.5865V140.518H62.9545V141.274C63.1785 141.002 63.4625 140.79 63.8065 140.638C64.1505 140.486 64.5185 140.41 64.9105 140.41C65.4385 140.41 65.9105 140.522 66.3265 140.746C66.7425 140.97 67.0625 141.294 67.2865 141.718C67.4865 141.318 67.7985 141.002 68.2225 140.77C68.6465 140.53 69.1025 140.41 69.5905 140.41ZM84.0245 147.13H82.6565L78.5405 140.902V147.13H77.1725V138.778H78.5405L82.6565 144.994V138.778H84.0245V147.13ZM88.6889 147.238C88.0649 147.238 87.5009 147.098 86.9969 146.818C86.4929 146.53 86.0969 146.13 85.8089 145.618C85.5209 145.098 85.3769 144.498 85.3769 143.818C85.3769 143.146 85.5249 142.55 85.8209 142.03C86.1169 141.51 86.5209 141.11 87.0329 140.83C87.5449 140.55 88.1169 140.41 88.7489 140.41C89.3809 140.41 89.9529 140.55 90.4649 140.83C90.9769 141.11 91.3809 141.51 91.6769 142.03C91.9729 142.55 92.1209 143.146 92.1209 143.818C92.1209 144.49 91.9689 145.086 91.6649 145.606C91.3609 146.126 90.9449 146.53 90.4169 146.818C89.8969 147.098 89.3209 147.238 88.6889 147.238ZM88.6889 146.05C89.0409 146.05 89.3689 145.966 89.6729 145.798C89.9849 145.63 90.2369 145.378 90.4289 145.042C90.6209 144.706 90.7169 144.298 90.7169 143.818C90.7169 143.338 90.6249 142.934 90.4409 142.606C90.2569 142.27 90.0129 142.018 89.7089 141.85C89.4049 141.682 89.0769 141.598 88.7249 141.598C88.3729 141.598 88.0449 141.682 87.7409 141.85C87.4449 142.018 87.2089 142.27 87.0329 142.606C86.8569 142.934 86.7689 143.338 86.7689 143.818C86.7689 144.53 86.9489 145.082 87.3089 145.474C87.6769 145.858 88.1369 146.05 88.6889 146.05ZM102.353 140.518L100.301 147.13H98.8612L97.5292 142.246L96.1972 147.13H94.7572L92.6932 140.518H94.0852L95.4652 145.834L96.8692 140.518H98.2972L99.6412 145.81L101.009 140.518H102.353Z" fill="#1C2649"/>
<path d="M22.7529 148.33H102.473V148.93H22.7529V148.33Z" fill="#1C2649"/>
<path d="M24.3729 30.6299V26.8859H31.8609V53.1299H27.7209V30.6299H24.3729ZM37.4989 39.6659C37.4989 35.5139 38.1949 32.2739 39.5869 29.9459C41.0029 27.5939 43.4269 26.4179 46.8589 26.4179C50.2909 26.4179 52.7029 27.5939 54.0949 29.9459C55.5109 32.2739 56.2189 35.5139 56.2189 39.6659C56.2189 43.8659 55.5109 47.1539 54.0949 49.5299C52.7029 51.8819 50.2909 53.0579 46.8589 53.0579C43.4269 53.0579 41.0029 51.8819 39.5869 49.5299C38.1949 47.1539 37.4989 43.8659 37.4989 39.6659ZM52.1869 39.6659C52.1869 37.7219 52.0549 36.0779 51.7909 34.7339C51.5509 33.3899 51.0469 32.2979 50.2789 31.4579C49.5109 30.5939 48.3709 30.1619 46.8589 30.1619C45.3469 30.1619 44.2069 30.5939 43.4389 31.4579C42.6709 32.2979 42.1549 33.3899 41.8909 34.7339C41.6509 36.0779 41.5309 37.7219 41.5309 39.6659C41.5309 41.6819 41.6509 43.3739 41.8909 44.7419C42.1309 46.1099 42.6349 47.2139 43.4029 48.0539C44.1949 48.8939 45.3469 49.3139 46.8589 49.3139C48.3709 49.3139 49.5109 48.8939 50.2789 48.0539C51.0709 47.2139 51.5869 46.1099 51.8269 44.7419C52.0669 43.3739 52.1869 41.6819 52.1869 39.6659ZM59.9134 33.2219C59.9134 31.4699 60.4174 30.1019 61.4254 29.1179C62.4574 28.1099 63.7774 27.6059 65.3854 27.6059C66.9934 27.6059 68.3014 28.1099 69.3094 29.1179C70.3414 30.1019 70.8574 31.4699 70.8574 33.2219C70.8574 34.9739 70.3414 36.3539 69.3094 37.3619C68.3014 38.3699 66.9934 38.8739 65.3854 38.8739C63.7774 38.8739 62.4574 38.3699 61.4254 37.3619C60.4174 36.3539 59.9134 34.9739 59.9134 33.2219ZM81.8734 28.0739L67.5094 53.1299H63.4774L77.8414 28.0739H81.8734ZM65.3854 30.0899C63.8734 30.0899 63.1174 31.1339 63.1174 33.2219C63.1174 35.3339 63.8734 36.3899 65.3854 36.3899C66.1054 36.3899 66.6574 36.1379 67.0414 35.6339C67.4494 35.1059 67.6534 34.3019 67.6534 33.2219C67.6534 31.1339 66.8974 30.0899 65.3854 30.0899ZM74.5654 47.9459C74.5654 46.1939 75.0694 44.8259 76.0774 43.8419C77.1094 42.8339 78.4294 42.3299 80.0374 42.3299C81.6214 42.3299 82.9174 42.8339 83.9254 43.8419C84.9574 44.8259 85.4734 46.1939 85.4734 47.9459C85.4734 49.6979 84.9574 51.0779 83.9254 52.0859C82.9174 53.0939 81.6214 53.5979 80.0374 53.5979C78.4294 53.5979 77.1094 53.0939 76.0774 52.0859C75.0694 51.0779 74.5654 49.6979 74.5654 47.9459ZM80.0014 44.8139C78.4894 44.8139 77.7334 45.8579 77.7334 47.9459C77.7334 50.0339 78.4894 51.0779 80.0014 51.0779C81.5134 51.0779 82.2694 50.0339 82.2694 47.9459C82.2694 45.8579 81.5134 44.8139 80.0014 44.8139ZM107.639 53.4539C105.767 53.4539 104.075 53.0339 102.563 52.1939C101.051 51.3299 99.863 50.1299 98.999 48.5939C98.135 47.0339 97.703 45.2339 97.703 43.1939C97.703 41.1779 98.147 39.3899 99.035 37.8299C99.923 36.2699 101.135 35.0699 102.671 34.2299C104.207 33.3899 105.923 32.9699 107.819 32.9699C109.715 32.9699 111.431 33.3899 112.967 34.2299C114.503 35.0699 115.715 36.2699 116.603 37.8299C117.491 39.3899 117.935 41.1779 117.935 43.1939C117.935 45.2099 117.479 46.9979 116.567 48.5579C115.655 50.1179 114.407 51.3299 112.823 52.1939C111.263 53.0339 109.535 53.4539 107.639 53.4539ZM107.639 49.8899C108.695 49.8899 109.679 49.6379 110.591 49.1339C111.527 48.6299 112.283 47.8739 112.859 46.8659C113.435 45.8579 113.723 44.6339 113.723 43.1939C113.723 41.7539 113.447 40.5419 112.895 39.5579C112.343 38.5499 111.611 37.7939 110.699 37.2899C109.787 36.7859 108.803 36.5339 107.747 36.5339C106.691 36.5339 105.707 36.7859 104.795 37.2899C103.907 37.7939 103.199 38.5499 102.671 39.5579C102.143 40.5419 101.879 41.7539 101.879 43.1939C101.879 45.3299 102.419 46.9859 103.499 48.1619C104.603 49.3139 105.983 49.8899 107.639 49.8899ZM130.308 36.6419H126.636V53.1299H122.496V36.6419H120.156V33.2939H122.496V31.8899C122.496 29.6099 123.096 27.9539 124.296 26.9219C125.52 25.8659 127.428 25.3379 130.02 25.3379V28.7579C128.772 28.7579 127.896 28.9979 127.392 29.4779C126.888 29.9339 126.636 30.7379 126.636 31.8899V33.2939H130.308V36.6419ZM142.261 36.6419H138.589V53.1299H134.449V36.6419H132.109V33.2939H134.449V31.8899C134.449 29.6099 135.049 27.9539 136.249 26.9219C137.473 25.8659 139.381 25.3379 141.973 25.3379V28.7579C140.725 28.7579 139.849 28.9979 139.345 29.4779C138.841 29.9339 138.589 30.7379 138.589 31.8899V33.2939H142.261V36.6419Z" fill="#1C2649"/>
<path d="M27.7769 81.2739C26.9449 81.2739 26.1929 81.0872 25.5209 80.7139C24.8489 80.3299 24.3209 79.7965 23.9369 79.1139C23.5529 78.4205 23.3609 77.6205 23.3609 76.7139C23.3609 75.8179 23.5583 75.0232 23.9529 74.3299C24.3476 73.6365 24.8863 73.1032 25.5689 72.7299C26.2516 72.3565 27.0143 72.1699 27.8569 72.1699C28.6996 72.1699 29.4623 72.3565 30.1449 72.7299C30.8276 73.1032 31.3663 73.6365 31.7609 74.3299C32.1556 75.0232 32.3529 75.8179 32.3529 76.7139C32.3529 77.6099 32.1503 78.4045 31.7449 79.0979C31.3396 79.7912 30.7849 80.3299 30.0809 80.7139C29.3876 81.0872 28.6196 81.2739 27.7769 81.2739ZM27.7769 79.6899C28.2463 79.6899 28.6836 79.5779 29.0889 79.3539C29.5049 79.1299 29.8409 78.7939 30.0969 78.3459C30.3529 77.8979 30.4809 77.3539 30.4809 76.7139C30.4809 76.0739 30.3583 75.5352 30.1129 75.0979C29.8676 74.6499 29.5423 74.3139 29.1369 74.0899C28.7316 73.8659 28.2943 73.7539 27.8249 73.7539C27.3556 73.7539 26.9183 73.8659 26.5129 74.0899C26.1183 74.3139 25.8036 74.6499 25.5689 75.0979C25.3343 75.5352 25.2169 76.0739 25.2169 76.7139C25.2169 77.6632 25.4569 78.3992 25.9369 78.9219C26.4276 79.4339 27.0409 79.6899 27.7769 79.6899ZM38.6041 72.1699C39.2974 72.1699 39.9161 72.3139 40.4601 72.6019C41.0147 72.8899 41.4467 73.3165 41.7561 73.8819C42.0654 74.4472 42.2201 75.1299 42.2201 75.9299V81.1299H40.4121V76.2019C40.4121 75.4125 40.2147 74.8099 39.8201 74.3939C39.4254 73.9672 38.8867 73.7539 38.2041 73.7539C37.5214 73.7539 36.9774 73.9672 36.5721 74.3939C36.1774 74.8099 35.9801 75.4125 35.9801 76.2019V81.1299H34.1561V72.3139H35.9801V73.3219C36.2787 72.9592 36.6574 72.6765 37.1161 72.4739C37.5854 72.2712 38.0814 72.1699 38.6041 72.1699ZM56.6389 72.3139L51.2309 85.2739H49.3429L51.1349 80.9859L47.6629 72.3139H49.6949L52.1749 79.0339L54.7509 72.3139H56.6389ZM61.8394 81.2739C61.0074 81.2739 60.2554 81.0872 59.5834 80.7139C58.9114 80.3299 58.3834 79.7965 57.9994 79.1139C57.6154 78.4205 57.4234 77.6205 57.4234 76.7139C57.4234 75.8179 57.6208 75.0232 58.0154 74.3299C58.4101 73.6365 58.9488 73.1032 59.6314 72.7299C60.3141 72.3565 61.0768 72.1699 61.9194 72.1699C62.7621 72.1699 63.5248 72.3565 64.2074 72.7299C64.8901 73.1032 65.4288 73.6365 65.8234 74.3299C66.2181 75.0232 66.4154 75.8179 66.4154 76.7139C66.4154 77.6099 66.2128 78.4045 65.8074 79.0979C65.4021 79.7912 64.8474 80.3299 64.1434 80.7139C63.4501 81.0872 62.6821 81.2739 61.8394 81.2739ZM61.8394 79.6899C62.3088 79.6899 62.7461 79.5779 63.1514 79.3539C63.5674 79.1299 63.9034 78.7939 64.1594 78.3459C64.4154 77.8979 64.5434 77.3539 64.5434 76.7139C64.5434 76.0739 64.4208 75.5352 64.1754 75.0979C63.9301 74.6499 63.6048 74.3139 63.1994 74.0899C62.7941 73.8659 62.3568 73.7539 61.8874 73.7539C61.4181 73.7539 60.9808 73.8659 60.5754 74.0899C60.1808 74.3139 59.8661 74.6499 59.6314 75.0979C59.3968 75.5352 59.2794 76.0739 59.2794 76.7139C59.2794 77.6632 59.5194 78.3992 59.9994 78.9219C60.4901 79.4339 61.1034 79.6899 61.8394 79.6899ZM76.2026 72.3139V81.1299H74.3786V80.0899C74.0906 80.4525 73.7119 80.7405 73.2426 80.9539C72.7839 81.1565 72.2932 81.2579 71.7706 81.2579C71.0772 81.2579 70.4532 81.1139 69.8986 80.8259C69.3546 80.5379 68.9226 80.1112 68.6026 79.5459C68.2932 78.9805 68.1386 78.2979 68.1386 77.4979V72.3139H69.9466V77.2259C69.9466 78.0152 70.1439 78.6232 70.5386 79.0499C70.9332 79.4659 71.4719 79.6739 72.1546 79.6739C72.8372 79.6739 73.3759 79.4659 73.7706 79.0499C74.1759 78.6232 74.3786 78.0152 74.3786 77.2259V72.3139H76.2026ZM80.4332 73.5939C80.6998 73.1459 81.0518 72.7992 81.4892 72.5539C81.9372 72.2979 82.4652 72.1699 83.0732 72.1699V74.0579H82.6092C81.8945 74.0579 81.3505 74.2392 80.9772 74.6019C80.6145 74.9645 80.4332 75.5939 80.4332 76.4899V81.1299H78.6092V72.3139H80.4332V73.5939ZM93.3541 72.1699C94.0474 72.1699 94.6661 72.3139 95.2101 72.6019C95.7647 72.8899 96.1967 73.3165 96.5061 73.8819C96.8154 74.4472 96.9701 75.1299 96.9701 75.9299V81.1299H95.1621V76.2019C95.1621 75.4125 94.9647 74.8099 94.5701 74.3939C94.1754 73.9672 93.6367 73.7539 92.9541 73.7539C92.2714 73.7539 91.7274 73.9672 91.3221 74.3939C90.9274 74.8099 90.7301 75.4125 90.7301 76.2019V81.1299H88.9061V72.3139H90.7301V73.3219C91.0287 72.9592 91.4074 72.6765 91.8661 72.4739C92.3354 72.2712 92.8314 72.1699 93.3541 72.1699ZM107.377 76.5059C107.377 76.8365 107.355 77.1352 107.313 77.4019H100.577C100.63 78.1059 100.891 78.6712 101.361 79.0979C101.83 79.5245 102.406 79.7379 103.089 79.7379C104.07 79.7379 104.763 79.3272 105.169 78.5059H107.137C106.87 79.3165 106.385 79.9832 105.681 80.5059C104.987 81.0179 104.123 81.2739 103.089 81.2739C102.246 81.2739 101.489 81.0872 100.817 80.7139C100.155 80.3299 99.6327 79.7965 99.2487 79.1139C98.8753 78.4205 98.6887 77.6205 98.6887 76.7139C98.6887 75.8072 98.87 75.0125 99.2327 74.3299C99.606 73.6365 100.123 73.1032 100.785 72.7299C101.457 72.3565 102.225 72.1699 103.089 72.1699C103.921 72.1699 104.662 72.3512 105.313 72.7139C105.963 73.0765 106.47 73.5885 106.833 74.2499C107.195 74.9005 107.377 75.6525 107.377 76.5059ZM105.473 75.9299C105.462 75.2579 105.222 74.7192 104.753 74.3139C104.283 73.9085 103.702 73.7059 103.009 73.7059C102.379 73.7059 101.841 73.9085 101.393 74.3139C100.945 74.7085 100.678 75.2472 100.593 75.9299H105.473ZM112.948 76.6659L115.796 81.1299H113.732L111.828 78.1379L110.036 81.1299H108.132L110.98 76.7939L108.132 72.3139H110.196L112.1 75.3059L113.892 72.3139H115.796L112.948 76.6659ZM119.284 73.8019V78.6819C119.284 79.0125 119.359 79.2525 119.508 79.4019C119.668 79.5405 119.935 79.6099 120.308 79.6099H121.428V81.1299H119.988C119.167 81.1299 118.537 80.9379 118.1 80.5539C117.663 80.1699 117.444 79.5459 117.444 78.6819V73.8019H116.404V72.3139H117.444V70.1219H119.284V72.3139H121.428V73.8019H119.284ZM131.089 81.2739C130.257 81.2739 129.505 81.0872 128.833 80.7139C128.161 80.3299 127.633 79.7965 127.249 79.1139C126.865 78.4205 126.673 77.6205 126.673 76.7139C126.673 75.8179 126.871 75.0232 127.265 74.3299C127.66 73.6365 128.199 73.1032 128.881 72.7299C129.564 72.3565 130.327 72.1699 131.169 72.1699C132.012 72.1699 132.775 72.3565 133.457 72.7299C134.14 73.1032 134.679 73.6365 135.073 74.3299C135.468 75.0232 135.665 75.8179 135.665 76.7139C135.665 77.6099 135.463 78.4045 135.057 79.0979C134.652 79.7912 134.097 80.3299 133.393 80.7139C132.7 81.0872 131.932 81.2739 131.089 81.2739ZM131.089 79.6899C131.559 79.6899 131.996 79.5779 132.401 79.3539C132.817 79.1299 133.153 78.7939 133.409 78.3459C133.665 77.8979 133.793 77.3539 133.793 76.7139C133.793 76.0739 133.671 75.5352 133.425 75.0979C133.18 74.6499 132.855 74.3139 132.449 74.0899C132.044 73.8659 131.607 73.7539 131.137 73.7539C130.668 73.7539 130.231 73.8659 129.825 74.0899C129.431 74.3139 129.116 74.6499 128.881 75.0979C128.647 75.5352 128.529 76.0739 128.529 76.7139C128.529 77.6632 128.769 78.3992 129.249 78.9219C129.74 79.4339 130.353 79.6899 131.089 79.6899ZM139.293 73.5939C139.559 73.1459 139.911 72.7992 140.349 72.5539C140.797 72.2979 141.325 72.1699 141.933 72.1699V74.0579H141.469C140.754 74.0579 140.21 74.2392 139.837 74.6019C139.474 74.9645 139.293 75.5939 139.293 76.4899V81.1299H137.469V72.3139H139.293V73.5939ZM143.001 76.6819C143.001 75.7965 143.183 75.0125 143.545 74.3299C143.919 73.6472 144.42 73.1192 145.049 72.7459C145.689 72.3619 146.399 72.1699 147.177 72.1699C147.753 72.1699 148.319 72.2979 148.873 72.5539C149.439 72.7992 149.887 73.1299 150.217 73.5459V69.2899H152.057V81.1299H150.217V79.8019C149.919 80.2285 149.503 80.5805 148.969 80.8579C148.447 81.1352 147.844 81.2739 147.161 81.2739C146.393 81.2739 145.689 81.0819 145.049 80.6979C144.42 80.3032 143.919 79.7592 143.545 79.0659C143.183 78.3619 143.001 77.5672 143.001 76.6819ZM150.217 76.7139C150.217 76.1059 150.089 75.5779 149.833 75.1299C149.588 74.6819 149.263 74.3405 148.857 74.1059C148.452 73.8712 148.015 73.7539 147.545 73.7539C147.076 73.7539 146.639 73.8712 146.233 74.1059C145.828 74.3299 145.497 74.6659 145.241 75.1139C144.996 75.5512 144.873 76.0739 144.873 76.6819C144.873 77.2899 144.996 77.8232 145.241 78.2819C145.497 78.7405 145.828 79.0925 146.233 79.3379C146.649 79.5725 147.087 79.6899 147.545 79.6899C148.015 79.6899 148.452 79.5725 148.857 79.3379C149.263 79.1032 149.588 78.7619 149.833 78.3139C150.089 77.8552 150.217 77.3219 150.217 76.7139ZM162.533 76.5059C162.533 76.8365 162.512 77.1352 162.469 77.4019H155.733C155.786 78.1059 156.048 78.6712 156.517 79.0979C156.986 79.5245 157.562 79.7379 158.245 79.7379C159.226 79.7379 159.92 79.3272 160.325 78.5059H162.293C162.026 79.3165 161.541 79.9832 160.837 80.5059C160.144 81.0179 159.28 81.2739 158.245 81.2739C157.402 81.2739 156.645 81.0872 155.973 80.7139C155.312 80.3299 154.789 79.7965 154.405 79.1139C154.032 78.4205 153.845 77.6205 153.845 76.7139C153.845 75.8072 154.026 75.0125 154.389 74.3299C154.762 73.6365 155.28 73.1032 155.941 72.7299C156.613 72.3565 157.381 72.1699 158.245 72.1699C159.077 72.1699 159.818 72.3512 160.469 72.7139C161.12 73.0765 161.626 73.5885 161.989 74.2499C162.352 74.9005 162.533 75.6525 162.533 76.5059ZM160.629 75.9299C160.618 75.2579 160.378 74.7192 159.909 74.3139C159.44 73.9085 158.858 73.7059 158.165 73.7059C157.536 73.7059 156.997 73.9085 156.549 74.3139C156.101 74.7085 155.834 75.2472 155.749 75.9299H160.629ZM166.152 73.5939C166.419 73.1459 166.771 72.7992 167.208 72.5539C167.656 72.2979 168.184 72.1699 168.792 72.1699V74.0579H168.328C167.613 74.0579 167.069 74.2392 166.696 74.6019C166.333 74.9645 166.152 75.5939 166.152 76.4899V81.1299H164.328V72.3139H166.152V73.5939Z" fill="#1C2649"/>
</g>
<defs>
<filter id="filter0_d_1269_2974" x="0.75293" y="0.129883" width="358" height="178" filterUnits="userSpaceOnUse" color-interpolation-filters="sRGB">
<feFlood flood-opacity="0" result="BackgroundImageFix"/>
<feColorMatrix in="SourceAlpha" type="matrix" values="0 0 0 0 0 0 0 0 0 0 0 0 0 0 0 0 0 0 127 0" result="hardAlpha"/>
<feOffset dx="2" dy="2"/>
<feGaussianBlur stdDeviation="2"/>
<feComposite in2="hardAlpha" operator="out"/>
<feColorMatrix type="matrix" values="0 0 0 0 0.180392 0 0 0 0 0.47451 0 0 0 0 0.745098 0 0 0 0.1 0"/>
<feBlend mode="normal" in2="BackgroundImageFix" result="effect1_dropShadow_1269_2974"/>
<feBlend mode="normal" in="SourceGraphic" in2="effect1_dropShadow_1269_2974" result="shape"/>
</filter>
<linearGradient id="paint0_linear_1269_2974" x1="-6.67305e-06" y1="-0.133594" x2="341.067" y2="186.216" gradientUnits="userSpaceOnUse">
<stop stop-color="#ECF8FF"/>
<stop offset="1" stop-color="#4C95EF" stop-opacity="0.04"/>
<stop offset="1" stop-color="white" stop-opacity="0"/>
</linearGradient>
<linearGradient id="paint1_linear_1269_2974" x1="-6.67305e-06" y1="-0.133594" x2="341.067" y2="186.216" gradientUnits="userSpaceOnUse">
<stop stop-color="#ECF8FF"/>
<stop offset="1" stop-color="#4C95EF" stop-opacity="0.04"/>
<stop offset="1" stop-color="white" stop-opacity="0"/>
</linearGradient>
</defs>
</svg>
