<svg width="130" height="219" viewBox="0 0 130 219" fill="none" xmlns="http://www.w3.org/2000/svg">
<g opacity="0.75">
<circle cx="20.6759" cy="20.6759" r="20.6759" transform="matrix(1 -8.74228e-08 -8.74228e-08 -1 32.3711 83.8688)" fill="url(#paint0_linear_1314_1199)" fill-opacity="0.2"/>
<circle cx="20.6759" cy="20.6759" r="21.0324" transform="matrix(1 -8.74228e-08 -8.74228e-08 -1 32.3711 83.8688)" stroke="#6CBFEF" stroke-opacity="0.2" stroke-width="0.712963"/>
</g>
<g opacity="0.75">
<circle cx="25.2817" cy="25.2817" r="25.2817" transform="matrix(1 -8.74228e-08 -8.74228e-08 -1 99 51.5825)" fill="url(#paint1_linear_1314_1199)" fill-opacity="0.2"/>
<circle cx="25.2817" cy="25.2817" r="25.6382" transform="matrix(1 -8.74228e-08 -8.74228e-08 -1 99 51.5825)" stroke="#6CBFEF" stroke-opacity="0.2" stroke-width="0.712963"/>
</g>
<g opacity="0.75">
<circle cx="20.6759" cy="20.6759" r="20.6759" transform="matrix(1 -8.74228e-08 -8.74228e-08 -1 113.649 200.794)" fill="url(#paint2_linear_1314_1199)" fill-opacity="0.2"/>
<circle cx="20.6759" cy="20.6759" r="21.0324" transform="matrix(1 -8.74228e-08 -8.74228e-08 -1 113.649 200.794)" stroke="#6CBFEF" stroke-opacity="0.2" stroke-width="0.712963"/>
</g>
<g opacity="0.75">
<ellipse cx="31.3704" cy="31.3704" rx="31.3704" ry="31.3704" transform="matrix(1 -8.74228e-08 -8.74228e-08 -1 48.0566 163.72)" fill="url(#paint3_linear_1314_1199)" fill-opacity="0.2"/>
<path d="M79.427 100.623C96.9493 100.623 111.154 114.827 111.154 132.35C111.154 149.872 96.9493 164.077 79.427 164.077C61.9048 164.077 47.7002 149.872 47.7002 132.35C47.7002 114.827 61.9048 100.623 79.427 100.623Z" stroke="#6CBFEF" stroke-opacity="0.2" stroke-width="0.712963"/>
</g>
<g opacity="0.75">
<ellipse cx="24.2407" cy="24.2407" rx="24.2407" ry="24.2407" transform="matrix(1 -8.74228e-08 -8.74228e-08 -1 1 217.905)" fill="url(#paint4_linear_1314_1199)" fill-opacity="0.2"/>
<path d="M25.2407 169.067C38.8254 169.067 49.838 180.08 49.838 193.664C49.838 207.249 38.8254 218.262 25.2407 218.262C11.6561 218.262 0.643518 207.249 0.643516 193.664C0.643515 180.08 11.6561 169.067 25.2407 169.067Z" stroke="#6CBFEF" stroke-opacity="0.2" stroke-width="0.712963"/>
</g>
<defs>
<linearGradient id="paint0_linear_1314_1199" x1="20.6759" y1="0" x2="20.6759" y2="41.3519" gradientUnits="userSpaceOnUse">
<stop stop-color="#1E2693"/>
<stop offset="1" stop-color="#6CBFEF" stop-opacity="0"/>
</linearGradient>
<linearGradient id="paint1_linear_1314_1199" x1="25.2817" y1="0" x2="25.2817" y2="50.5635" gradientUnits="userSpaceOnUse">
<stop stop-color="#1E2693"/>
<stop offset="1" stop-color="#6CBFEF" stop-opacity="0"/>
</linearGradient>
<linearGradient id="paint2_linear_1314_1199" x1="20.6759" y1="0" x2="20.6759" y2="41.3519" gradientUnits="userSpaceOnUse">
<stop stop-color="#1E2693"/>
<stop offset="1" stop-color="#6CBFEF" stop-opacity="0"/>
</linearGradient>
<linearGradient id="paint3_linear_1314_1199" x1="31.3704" y1="0" x2="31.3704" y2="62.7407" gradientUnits="userSpaceOnUse">
<stop stop-color="#1E2693"/>
<stop offset="1" stop-color="#6CBFEF" stop-opacity="0"/>
</linearGradient>
<linearGradient id="paint4_linear_1314_1199" x1="24.2407" y1="0" x2="24.2407" y2="48.4815" gradientUnits="userSpaceOnUse">
<stop stop-color="#1E2693"/>
<stop offset="1" stop-color="#6CBFEF" stop-opacity="0"/>
</linearGradient>
</defs>
</svg>
