<svg width="12" height="12" viewBox="0 0 12 12" fill="none" xmlns="http://www.w3.org/2000/svg">
<path d="M6.58004 6.37297L11.4995 1.65773C11.6894 1.48197 11.6947 1.19197 11.5113 1.00998C11.3279 0.827991 11.0254 0.822945 10.8355 0.998706C10.8315 1.00238 10.8276 1.00614 10.8237 1.00998L5.9042 5.72522L0.984701 1.00995C0.794829 0.834192 0.492266 0.839238 0.308892 1.02123C0.129998 1.19876 0.129998 1.4802 0.308892 1.65773L5.22839 6.37297L0.308892 11.0882C0.122297 11.2671 0.122297 11.5571 0.308892 11.736C0.495515 11.9148 0.798078 11.9148 0.984701 11.736L5.9042 7.02072L10.8237 11.736C11.0136 11.9117 11.3161 11.9067 11.4995 11.7247C11.6784 11.5471 11.6784 11.2657 11.4995 11.0882L6.58004 6.37297Z" fill="#677294"/>
</svg>
