<svg width="110" height="125" viewBox="0 0 110 125" fill="none" xmlns="http://www.w3.org/2000/svg">
<g opacity="0.75">
<circle cx="72.5" cy="15.4976" r="14.5" transform="rotate(-180 72.5 15.4976)" fill="url(#paint0_linear_1230_5551)" fill-opacity="0.2"/>
<circle cx="72.5" cy="15.4976" r="14.75" transform="rotate(-180 72.5 15.4976)" stroke="#6CBFEF" stroke-opacity="0.2" stroke-width="0.5"/>
</g>
<g opacity="0.75">
<circle cx="15.5" cy="97.4976" r="14.5" transform="rotate(-180 15.5 97.4976)" fill="url(#paint1_linear_1230_5551)" fill-opacity="0.2"/>
<circle cx="15.5" cy="97.4976" r="14.75" transform="rotate(-180 15.5 97.4976)" stroke="#6CBFEF" stroke-opacity="0.2" stroke-width="0.5"/>
</g>
<g opacity="0.75">
<ellipse cx="9.5" cy="30.4976" rx="8.5" ry="8.5" transform="rotate(-180 9.5 30.4976)" fill="url(#paint2_linear_1230_5551)" fill-opacity="0.2"/>
<path d="M9.5 21.7476C4.66751 21.7476 0.749999 25.6651 0.749999 30.4976C0.749998 35.33 4.66751 39.2476 9.5 39.2476C14.3325 39.2476 18.25 35.3301 18.25 30.4976C18.25 25.6651 14.3325 21.7476 9.5 21.7476Z" stroke="#6CBFEF" stroke-opacity="0.2" stroke-width="0.5"/>
</g>
<g opacity="0.75">
<ellipse cx="54" cy="63.9976" rx="22" ry="22" transform="rotate(-180 54 63.9976)" fill="url(#paint3_linear_1230_5551)" fill-opacity="0.2"/>
<path d="M54 41.7476C41.7117 41.7476 31.75 51.7092 31.75 63.9976C31.75 76.2859 41.7117 86.2476 54 86.2476C66.2883 86.2476 76.25 76.2859 76.25 63.9976C76.25 51.7092 66.2883 41.7476 54 41.7476Z" stroke="#6CBFEF" stroke-opacity="0.2" stroke-width="0.5"/>
</g>
<g opacity="0.75">
<ellipse cx="92" cy="106.998" rx="17" ry="17" transform="rotate(-180 92 106.998)" fill="url(#paint4_linear_1230_5551)" fill-opacity="0.2"/>
<path d="M92 89.7476C82.4731 89.7476 74.75 97.4706 74.75 106.998C74.75 116.524 82.4731 124.248 92 124.248C101.527 124.248 109.25 116.524 109.25 106.998C109.25 97.4706 101.527 89.7476 92 89.7476Z" stroke="#6CBFEF" stroke-opacity="0.2" stroke-width="0.5"/>
</g>
<defs>
<linearGradient id="paint0_linear_1230_5551" x1="72.5" y1="0.997558" x2="72.5" y2="29.9976" gradientUnits="userSpaceOnUse">
<stop stop-color="#6CBFEF"/>
<stop offset="1" stop-color="#6CBFEF" stop-opacity="0"/>
</linearGradient>
<linearGradient id="paint1_linear_1230_5551" x1="15.5" y1="82.9976" x2="15.5" y2="111.998" gradientUnits="userSpaceOnUse">
<stop stop-color="#6CBFEF"/>
<stop offset="1" stop-color="#6CBFEF" stop-opacity="0"/>
</linearGradient>
<linearGradient id="paint2_linear_1230_5551" x1="9.5" y1="21.9976" x2="9.5" y2="38.9976" gradientUnits="userSpaceOnUse">
<stop stop-color="#6CBFEF"/>
<stop offset="1" stop-color="#6CBFEF" stop-opacity="0"/>
</linearGradient>
<linearGradient id="paint3_linear_1230_5551" x1="54" y1="41.9976" x2="54" y2="85.9976" gradientUnits="userSpaceOnUse">
<stop stop-color="#6CBFEF"/>
<stop offset="1" stop-color="#6CBFEF" stop-opacity="0"/>
</linearGradient>
<linearGradient id="paint4_linear_1230_5551" x1="92" y1="89.9976" x2="92" y2="123.998" gradientUnits="userSpaceOnUse">
<stop stop-color="#6CBFEF"/>
<stop offset="1" stop-color="#6CBFEF" stop-opacity="0"/>
</linearGradient>
</defs>
</svg>
