<svg width="130" height="107" viewBox="0 0 130 107" fill="none" xmlns="http://www.w3.org/2000/svg">
<g opacity="0.75">
<circle cx="14.5" cy="14.5" r="14.5" transform="matrix(1 -8.74228e-08 -8.74228e-08 -1 23 29.9976)" fill="url(#paint0_linear_1230_5557)" fill-opacity="0.2"/>
<circle cx="14.5" cy="14.5" r="14.75" transform="matrix(1 -8.74228e-08 -8.74228e-08 -1 23 29.9976)" stroke="#6CBFEF" stroke-opacity="0.2" stroke-width="0.5"/>
</g>
<g opacity="0.75">
<circle cx="14.5" cy="14.5" r="14.5" transform="matrix(1 -8.74228e-08 -8.74228e-08 -1 100 103.998)" fill="url(#paint1_linear_1230_5557)" fill-opacity="0.2"/>
<circle cx="14.5" cy="14.5" r="14.75" transform="matrix(1 -8.74228e-08 -8.74228e-08 -1 100 103.998)" stroke="#6CBFEF" stroke-opacity="0.2" stroke-width="0.5"/>
</g>
<g opacity="0.75">
<ellipse cx="8.5" cy="8.5" rx="8.5" ry="8.5" transform="matrix(1 -8.74228e-08 -8.74228e-08 -1 92 38.9976)" fill="url(#paint2_linear_1230_5557)" fill-opacity="0.2"/>
<path d="M100.5 21.7476C105.332 21.7476 109.25 25.6651 109.25 30.4976C109.25 35.33 105.332 39.2476 100.5 39.2476C95.6675 39.2476 91.75 35.3301 91.75 30.4976C91.75 25.6651 95.6675 21.7476 100.5 21.7476Z" stroke="#6CBFEF" stroke-opacity="0.2" stroke-width="0.5"/>
</g>
<g opacity="0.75">
<ellipse cx="22" cy="22" rx="22" ry="22" transform="matrix(1 -8.74228e-08 -8.74228e-08 -1 42 78.9976)" fill="url(#paint3_linear_1230_5557)" fill-opacity="0.2"/>
<path d="M64 34.7476C76.2883 34.7476 86.25 44.7092 86.25 56.9976C86.25 69.2859 76.2883 79.2476 64 79.2476C51.7117 79.2476 41.75 69.2859 41.75 56.9976C41.75 44.7092 51.7117 34.7476 64 34.7476Z" stroke="#6CBFEF" stroke-opacity="0.2" stroke-width="0.5"/>
</g>
<g opacity="0.75">
<ellipse cx="17" cy="17" rx="17" ry="17" transform="matrix(1 -8.74228e-08 -8.74228e-08 -1 1 105.998)" fill="url(#paint4_linear_1230_5557)" fill-opacity="0.2"/>
<path d="M18 71.7476C27.5269 71.7476 35.25 79.4706 35.25 88.9976C35.25 98.5245 27.5269 106.248 18 106.248C8.47309 106.248 0.749999 98.5245 0.749999 88.9976C0.749998 79.4706 8.47309 71.7476 18 71.7476Z" stroke="#6CBFEF" stroke-opacity="0.2" stroke-width="0.5"/>
</g>
<defs>
<linearGradient id="paint0_linear_1230_5557" x1="14.5" y1="0" x2="14.5" y2="29" gradientUnits="userSpaceOnUse">
<stop stop-color="#6CBFEF"/>
<stop offset="1" stop-color="#6CBFEF" stop-opacity="0"/>
</linearGradient>
<linearGradient id="paint1_linear_1230_5557" x1="14.5" y1="0" x2="14.5" y2="29" gradientUnits="userSpaceOnUse">
<stop stop-color="#6CBFEF"/>
<stop offset="1" stop-color="#6CBFEF" stop-opacity="0"/>
</linearGradient>
<linearGradient id="paint2_linear_1230_5557" x1="8.5" y1="0" x2="8.5" y2="17" gradientUnits="userSpaceOnUse">
<stop stop-color="#6CBFEF"/>
<stop offset="1" stop-color="#6CBFEF" stop-opacity="0"/>
</linearGradient>
<linearGradient id="paint3_linear_1230_5557" x1="22" y1="0" x2="22" y2="44" gradientUnits="userSpaceOnUse">
<stop stop-color="#6CBFEF"/>
<stop offset="1" stop-color="#6CBFEF" stop-opacity="0"/>
</linearGradient>
<linearGradient id="paint4_linear_1230_5557" x1="17" y1="0" x2="17" y2="34" gradientUnits="userSpaceOnUse">
<stop stop-color="#6CBFEF"/>
<stop offset="1" stop-color="#6CBFEF" stop-opacity="0"/>
</linearGradient>
</defs>
</svg>
