<svg width="65" height="65" viewBox="0 0 65 65" fill="none" xmlns="http://www.w3.org/2000/svg">
<path d="M64.9997 -0.00244141V64.9976H39.5649V45.215H32.4997C30.7831 42.7465 29.3604 40.0861 28.2606 37.2878V25.4323H22.6084V-0.00244141H64.9997Z" fill="#7C7D7D"/>
<path d="M64.9998 -0.00244141V62.1715C55.6971 62.1724 46.6915 58.8954 39.565 52.916V45.215H32.4998C28.3849 39.3884 25.9417 32.5474 25.4346 25.4323C25.4346 23.4965 25.4346 23.44 25.4346 -0.00244141H64.9998Z" fill="#919191"/>
<path d="M59.3477 5.64941V64.9972H39.5651V45.2146H28.2607V5.64941H59.3477Z" fill="#014D7A"/>
<path d="M50.9688 36.0298C50.819 36.6823 50.9056 37.3668 51.2133 37.9613C51.521 38.5558 52.0298 39.0219 52.649 39.2763C53.2682 39.5308 53.9576 39.5572 54.5944 39.3508C55.2312 39.1444 55.7741 38.7187 56.1264 38.1494H59.3481V62.1712C51.9449 62.183 44.836 59.2734 39.5655 54.0744V45.2146H33.4471C30.3101 38.0222 31.0873 35.0831 31.0873 5.64941H59.3481V36.7364H56.1264C55.8427 37.2138 55.4245 37.597 54.9242 37.8382C54.4239 38.0794 53.8637 38.1678 53.3134 38.0924C52.7632 38.0171 52.2474 37.7812 51.8304 37.4144C51.4134 37.0476 51.1137 36.566 50.9688 36.0298Z" fill="#6CBFEF"/>
<path d="M60.7609 33.9106H56.1261C55.815 33.3718 55.3349 32.9508 54.7601 32.7127C54.1854 32.4746 53.5481 32.4328 52.9472 32.5939C52.3463 32.7549 51.8153 33.1097 51.4365 33.6032C51.0578 34.0968 50.8525 34.7015 50.8525 35.3236C50.8525 35.9458 51.0578 36.5505 51.4365 37.0441C51.8153 37.5376 52.3463 37.8924 52.9472 38.0534C53.5481 38.2145 54.1854 38.1727 54.7601 37.9346C55.3349 37.6965 55.815 37.2755 56.1261 36.7367H60.7609C61.1356 36.7367 61.495 36.5878 61.76 36.3228C62.025 36.0578 62.1739 35.6984 62.1739 35.3236C62.1739 34.9489 62.025 34.5895 61.76 34.3245C61.495 34.0595 61.1356 33.9106 60.7609 33.9106Z" fill="#C6C3D8"/>
<path d="M59.3475 36.7368V38.1498H56.1258C55.7735 38.7191 55.2306 39.1449 54.5938 39.3512C53.957 39.5576 53.2675 39.5312 52.6483 39.2767C52.0292 39.0223 51.5204 38.5563 51.2127 37.9617C50.905 37.3672 50.8183 36.6827 50.9682 36.0303C51.1131 36.5664 51.4128 37.048 51.8297 37.4148C52.2467 37.7817 52.7626 38.0175 53.3128 38.0929C53.8631 38.1682 54.4233 38.0798 54.9236 37.8386C55.4239 37.5975 55.842 37.2142 56.1258 36.7368H59.3475Z" fill="#014D7A"/>
<path d="M60.7607 38.1498H59.3477V36.7368C60.6053 36.7368 61.3966 36.9346 61.9618 36.0303C62.0849 36.2434 62.1502 36.485 62.1512 36.7312C62.1522 36.9773 62.0889 37.2195 61.9675 37.4336C61.8462 37.6478 61.671 37.8265 61.4593 37.9521C61.2476 38.0778 61.0068 38.1459 60.7607 38.1498Z" fill="#7C7D7D"/>
<path d="M56.1264 33.9105C55.8426 33.4331 55.4245 33.0499 54.9242 32.8087C54.4239 32.5675 53.8636 32.4791 53.3134 32.5545C52.7632 32.6298 52.2473 32.8657 51.8303 33.2325C51.4133 33.5993 51.1137 34.0809 50.9688 34.6171C51.1137 35.1532 51.4133 35.6348 51.8303 36.0016C52.2473 36.3684 52.7632 36.6043 53.3134 36.6797C53.8636 36.755 54.4239 36.6666 54.9242 36.4254C55.4245 36.1843 55.8426 35.801 56.1264 35.3236C60.9166 35.3236 61.397 35.5638 61.9622 34.6171C61.397 33.6703 60.9448 33.9105 56.1264 33.9105Z" fill="#DAD7E5"/>
<path d="M19.7822 45.2148H39.5648V64.9975H19.7822V45.2148Z" fill="#FF9670"/>
<path d="M39.5649 45.2148V62.1714H31.0867C28.8381 62.1714 26.6816 61.2781 25.0916 59.6881C23.5016 58.0982 22.6084 55.9417 22.6084 53.6931V45.2148H39.5649Z" fill="#FFAA8C"/>
<path d="M8.47852 25.4326H28.2611V45.2152H8.47852V25.4326Z" fill="#FF9670"/>
<path d="M28.2602 25.4326V42.3891H19.782C17.5334 42.3891 15.3769 41.4959 13.7869 39.9059C12.197 38.3159 11.3037 36.1595 11.3037 33.9109V25.4326H28.2602Z" fill="#FFAA8C"/>
<path d="M0 45.2148H19.7826V64.9975H0V45.2148Z" fill="#FF9670"/>
<path d="M19.7827 45.2148V62.1714H11.3044C9.05586 62.1714 6.89938 61.2781 5.3094 59.6881C3.71941 58.0982 2.82617 55.9417 2.82617 53.6931V45.2148H19.7827Z" fill="#FFAA8C"/>
<path d="M7.06543 45.2148H12.7176V50.867H7.06543V45.2148Z" fill="#F6CCAF"/>
<path d="M12.7176 45.2148V49.454C11.5934 49.454 10.5151 49.0074 9.72013 48.2124C8.92514 47.4174 8.47852 46.3391 8.47852 45.2148H12.7176Z" fill="#FFDEC7"/>
<path d="M26.8477 45.2148H32.4998V50.867H26.8477V45.2148Z" fill="#F6CCAF"/>
<path d="M32.4999 45.2148V49.454C31.3756 49.454 30.2973 49.0074 29.5024 48.2124C28.7074 47.4174 28.2607 46.3391 28.2607 45.2148H32.4999Z" fill="#FFDEC7"/>
<path d="M15.5439 25.4326H21.1961V31.0848H15.5439V25.4326Z" fill="#F6CCAF"/>
<path d="M21.1962 25.4326V29.6717C20.0719 29.6717 18.9936 29.2251 18.1986 28.4301C17.4037 27.6351 16.957 26.5569 16.957 25.4326H21.1962Z" fill="#FFDEC7"/>
<path d="M8.47839 60.7582H5.6523C5.27754 60.7582 4.91813 60.6093 4.65313 60.3443C4.38813 60.0793 4.23926 59.7199 4.23926 59.3452C4.23926 58.9704 4.38813 58.611 4.65313 58.346C4.91813 58.081 5.27754 57.9321 5.6523 57.9321H8.47839C8.85315 57.9321 9.21256 58.081 9.47756 58.346C9.74256 58.611 9.89143 58.9704 9.89143 59.3452C9.89143 59.7199 9.74256 60.0793 9.47756 60.3443C9.21256 60.6093 8.85315 60.7582 8.47839 60.7582Z" fill="#C6C3D8"/>
<path d="M28.2616 60.7582H25.4355C25.0607 60.7582 24.7013 60.6093 24.4363 60.3443C24.1713 60.0793 24.0225 59.7199 24.0225 59.3452C24.0225 58.9704 24.1713 58.611 24.4363 58.346C24.7013 58.081 25.0607 57.9321 25.4355 57.9321H28.2616C28.6364 57.9321 28.9958 58.081 29.2608 58.346C29.5258 58.611 29.6746 58.9704 29.6746 59.3452C29.6746 59.7199 29.5258 60.0793 29.2608 60.3443C28.9958 60.6093 28.6364 60.7582 28.2616 60.7582Z" fill="#C6C3D8"/>
<path d="M16.9569 40.9755H14.1308C13.7561 40.9755 13.3966 40.8266 13.1316 40.5616C12.8666 40.2966 12.7178 39.9372 12.7178 39.5625C12.7178 39.1877 12.8666 38.8283 13.1316 38.5633C13.3966 38.2983 13.7561 38.1494 14.1308 38.1494H16.9569C17.3317 38.1494 17.6911 38.2983 17.9561 38.5633C18.2211 38.8283 18.3699 39.1877 18.3699 39.5625C18.3699 39.9372 18.2211 40.2966 17.9561 40.5616C17.6911 40.8266 17.3317 40.9755 16.9569 40.9755Z" fill="#C6C3D8"/>
</svg>
