<svg width="155" height="35" viewBox="0 0 155 35" fill="none" xmlns="http://www.w3.org/2000/svg">
<path d="M8.26225 26.48C7.89958 26.48 7.41958 26.4693 6.82225 26.448C6.22492 26.4267 5.65958 26.3307 5.12625 26.16C4.59292 26.0107 4.24092 25.7333 4.07025 25.328C4.07025 24.9867 4.08092 24.368 4.10225 23.472C4.12358 22.576 4.13425 21.5093 4.13425 20.272C4.15558 19.0133 4.17692 17.6693 4.19825 16.24C4.21958 14.8107 4.23025 13.4133 4.23025 12.048C4.23025 11.3653 4.16625 10.6827 4.03825 10C3.91025 9.296 3.72892 8.67733 3.49425 8.144C3.28092 7.61067 3.01425 7.26933 2.69425 7.12C2.43825 7.248 2.18225 7.344 1.92625 7.408C1.69158 7.45067 1.45692 7.472 1.22225 7.472C0.880917 7.472 0.592917 7.39733 0.35825 7.248C0.123583 7.07733 0.00625002 6.832 0.00625002 6.512C0.00625002 5.936 0.23025 5.46667 0.67825 5.104C1.12625 4.74133 1.68092 4.464 2.34225 4.272C3.00358 4.08 3.66492 3.94133 4.32625 3.856C4.98758 3.77067 5.52092 3.70667 5.92625 3.664C6.22492 3.664 6.63025 3.65333 7.14225 3.632C7.65425 3.58933 8.12358 3.55733 8.55025 3.536C8.97692 3.51467 9.21158 3.504 9.25425 3.504C10.7689 3.54667 12.2303 3.81333 13.6383 4.304C15.0676 4.79467 16.3476 5.488 17.4783 6.384C18.6303 7.25867 19.5369 8.31467 20.1983 9.552C20.8809 10.7893 21.2223 12.1867 21.2223 13.744C21.2223 15.408 20.8596 17.008 20.1343 18.544C19.4089 20.0587 18.4276 21.4133 17.1903 22.608C15.9529 23.8027 14.5663 24.752 13.0303 25.456C11.4943 26.1387 9.90492 26.48 8.26225 26.48ZM8.07025 23.792C9.32892 23.792 10.5983 23.504 11.8783 22.928C13.1796 22.352 14.3636 21.5733 15.4303 20.592C16.5183 19.6107 17.3929 18.5013 18.0543 17.264C18.7156 16.0053 19.0463 14.7147 19.0463 13.392C19.0463 12.2613 18.7476 11.2373 18.1503 10.32C17.5529 9.40267 16.7423 8.624 15.7183 7.984C14.6943 7.32267 13.5529 6.82133 12.2943 6.48C11.0569 6.13867 9.77692 5.968 8.45425 5.968C8.30492 5.968 8.13425 5.968 7.94225 5.968C7.77158 5.968 7.60092 5.97867 7.43025 6C6.59825 6.04267 6.08625 6.37333 5.89425 6.992C6.25692 8.656 6.49158 10.256 6.59825 11.792C6.70492 13.328 6.75825 14.928 6.75825 16.592C6.75825 17.5093 6.72625 18.4373 6.66225 19.376C6.61958 20.3147 6.59825 21.2853 6.59825 22.288V23.248C6.83292 23.4613 7.06758 23.6107 7.30225 23.696C7.55825 23.76 7.81425 23.792 8.07025 23.792ZM25.5653 26.32C25.3306 26.32 25.1493 26.2133 25.0213 26C24.9146 25.7867 24.8399 25.5413 24.7973 25.264C24.7546 24.9867 24.7119 24.752 24.6693 24.56V22.032C24.6693 20.752 24.7226 19.44 24.8293 18.096C24.9573 16.752 25.0213 15.44 25.0213 14.16C25.0213 13.5413 24.9786 12.9227 24.8932 12.304C24.8293 11.6853 24.7546 11.1627 24.6693 10.736C24.6479 10.6293 24.6266 10.5333 24.6053 10.448C24.6053 10.3627 24.6053 10.2773 24.6053 10.192C24.6053 9.91467 24.6906 9.73333 24.8613 9.648C25.0319 9.56267 25.3199 9.52 25.7253 9.52C26.2159 9.52 26.5786 9.73333 26.8133 10.16C27.0479 10.5867 27.2186 11.088 27.3253 11.664C27.4533 12.2187 27.5706 12.72 27.6773 13.168C28.2959 12.4213 28.9679 11.8773 29.6933 11.536C30.4186 11.1947 31.0266 10.896 31.5173 10.64C31.9866 10.4053 32.4559 10.224 32.9253 10.096C33.4159 9.94667 33.9599 9.872 34.5573 9.872C35.1546 9.872 35.7093 10.0427 36.2213 10.384C36.7546 10.704 37.0213 11.056 37.0213 11.44C37.0213 11.888 36.8826 12.2187 36.6053 12.432C36.3279 12.6453 36.0079 12.752 35.6453 12.752C35.5386 12.752 35.4319 12.7413 35.3253 12.72C35.2399 12.6773 35.1439 12.6453 35.0373 12.624C34.8879 12.56 34.7173 12.5067 34.5253 12.464C34.3546 12.4213 34.1839 12.4 34.0133 12.4C33.3519 12.4 32.7119 12.528 32.0933 12.784C31.4746 13.0187 30.9519 13.2533 30.5253 13.488C29.7786 13.8933 29.1919 14.352 28.7653 14.864C28.3599 15.3547 28.0186 15.8133 27.7413 16.24C27.5919 17.0507 27.4959 17.84 27.4533 18.608C27.4106 19.376 27.3786 19.9733 27.3573 20.4C27.3359 20.848 27.3146 21.3173 27.2933 21.808C27.2719 22.2987 27.2399 22.7893 27.1973 23.28C27.1546 23.792 27.0906 24.2827 27.0052 24.752C26.9199 25.2213 26.7706 25.6053 26.5573 25.904C26.3439 26.1813 26.0133 26.32 25.5653 26.32ZM41.99 34.384C41.926 34.384 41.83 34.2987 41.702 34.128C41.574 33.9573 41.51 33.7013 41.51 33.36C41.51 33.0613 41.542 32.7627 41.606 32.464C41.6913 32.1653 41.798 31.8667 41.926 31.568C42.0753 31.248 42.2247 30.928 42.374 30.608C42.5233 30.288 42.6727 29.968 42.822 29.648C42.95 29.328 43.0993 28.9227 43.27 28.432C43.462 27.9413 43.6433 27.44 43.814 26.928C43.9847 26.4373 44.1233 26.0107 44.23 25.648C44.358 25.2853 44.422 25.0827 44.422 25.04V24.208C43.0993 24.208 42.0007 23.9627 41.126 23.472C40.2513 22.9813 39.558 22.3307 39.046 21.52C38.534 20.7093 38.1607 19.8133 37.926 18.832C37.6913 17.8293 37.5313 16.816 37.446 15.792C37.382 14.7467 37.35 13.776 37.35 12.88C37.35 12.4533 37.3607 12.0373 37.382 11.632C37.4033 11.2267 37.4567 10.8213 37.542 10.416C37.6487 9.92533 37.7767 9.60533 37.926 9.456C38.0967 9.28533 38.2567 9.2 38.406 9.2C38.8967 9.2 39.238 9.392 39.43 9.776C39.6433 10.1387 39.75 10.672 39.75 11.376C39.75 11.8667 39.718 12.336 39.654 12.784C39.59 13.2107 39.558 13.68 39.558 14.192V14.512C39.558 14.704 39.59 15.0773 39.654 15.632C39.7393 16.1653 39.8247 16.7093 39.91 17.264C39.9953 17.8187 40.0593 18.2347 40.102 18.512C40.2087 18.9813 40.3687 19.4827 40.582 20.016C40.7953 20.528 41.094 20.9653 41.478 21.328C41.8833 21.6907 42.3953 21.872 43.014 21.872C43.846 21.872 44.582 21.5733 45.222 20.976C45.8833 20.3573 46.4807 19.568 47.014 18.608C47.5687 17.6267 48.07 16.6027 48.518 15.536C48.6887 15.1733 48.8487 14.8107 48.998 14.448C49.1473 14.0853 49.2967 13.7333 49.446 13.392C49.6167 13.0507 49.7767 12.7307 49.926 12.432C50.0753 12.1333 50.2353 11.8453 50.406 11.568C50.7473 11.0133 51.0567 10.6187 51.334 10.384C51.6327 10.1493 51.9207 10.032 52.198 10.032C52.4753 10.032 52.678 10.1067 52.806 10.256C52.9553 10.4053 53.03 10.6613 53.03 11.024C53.03 11.6853 52.9127 12.336 52.678 12.976C52.4647 13.616 52.1873 14.256 51.846 14.896C51.4833 15.5573 51.0993 16.208 50.694 16.848C50.2887 17.488 49.9367 18.128 49.638 18.768C49.4673 19.152 49.2327 19.6747 48.934 20.336C48.6567 20.976 48.358 21.648 48.038 22.352C47.7393 23.0347 47.4727 23.6427 47.238 24.176C47.0247 24.7093 46.8967 25.04 46.854 25.168C46.8327 25.2747 46.7473 25.52 46.598 25.904C46.4487 26.2667 46.278 26.704 46.086 27.216C45.9153 27.728 45.734 28.24 45.542 28.752C45.35 29.2853 45.1793 29.7333 45.03 30.096C44.902 30.48 44.8167 30.7253 44.774 30.832C44.646 31.216 44.4647 31.6853 44.23 32.24C43.9953 32.7947 43.6967 33.2853 43.334 33.712C42.9927 34.16 42.5447 34.384 41.99 34.384ZM77.7253 26.8C75.9333 26.8 74.3333 26.4053 72.9253 25.616C71.5173 24.8053 70.4079 23.696 69.5973 22.288C68.7866 20.8587 68.3813 19.2373 68.3813 17.424C68.3813 16.272 68.5519 15.0773 68.8932 13.84C69.2559 12.6027 69.7573 11.3973 70.3973 10.224C71.0586 9.05067 71.8373 7.99467 72.7333 7.056C73.6506 6.11733 74.6639 5.37067 75.7733 4.816C76.8826 4.26133 78.0559 3.984 79.2933 3.984C80.2533 3.984 81.1813 4.176 82.0773 4.56C82.9946 4.92267 83.7413 5.456 84.3173 6.16C84.9146 6.864 85.2133 7.70667 85.2133 8.688C85.2133 9.15733 85.1279 9.46667 84.9573 9.616C84.7866 9.76533 84.5946 9.84 84.3813 9.84C84.0399 9.84 83.7626 9.712 83.5493 9.456C83.3359 9.17867 83.1332 8.816 82.9412 8.368C82.7706 8.02667 82.5573 7.696 82.3013 7.376C82.0453 7.03467 81.7039 6.74667 81.2773 6.512C80.8506 6.27733 80.2959 6.16 79.6133 6.16C78.2479 6.16 77.0213 6.49067 75.9333 7.152C74.8666 7.81333 73.9599 8.67733 73.2133 9.744C72.4666 10.7893 71.9013 11.92 71.5173 13.136C71.1333 14.3307 70.9413 15.472 70.9413 16.56C70.9413 17.392 71.0693 18.2667 71.3253 19.184C71.6026 20.1013 71.9973 20.9653 72.5093 21.776C73.0426 22.5653 73.6933 23.216 74.4613 23.728C75.2506 24.2187 76.1679 24.464 77.2133 24.464C78.4293 24.464 79.4639 24.3147 80.3173 24.016C81.1706 23.7173 81.9173 23.3333 82.5573 22.864C83.2186 22.3947 83.8266 21.904 84.3813 21.392C84.8079 20.9867 85.2666 20.784 85.7573 20.784C86.0773 20.784 86.3439 20.88 86.5573 21.072C86.7919 21.264 86.9093 21.552 86.9093 21.936C86.9093 22.192 86.7386 22.5227 86.3973 22.928C86.2479 23.12 86.0666 23.3013 85.8533 23.472C85.6613 23.6213 85.4799 23.7813 85.3093 23.952C84.2213 24.8693 83.0479 25.5733 81.7893 26.064C80.5306 26.5547 79.1759 26.8 77.7253 26.8ZM92.9808 26.16C92.5754 26.16 92.2661 26 92.0528 25.68C91.8394 25.36 91.6901 24.9653 91.6048 24.496C91.5194 24.0267 91.4661 23.5573 91.4448 23.088C91.4448 22.6187 91.4448 22.2453 91.4448 21.968C91.4448 21.7973 91.4341 21.6053 91.4128 21.392C91.4128 21.1787 91.4128 20.9653 91.4128 20.752C91.4128 19.6853 91.4448 18.3947 91.5088 16.88C91.5728 15.344 91.6581 13.7333 91.7648 12.048C91.8928 10.3413 92.0314 8.67733 92.1808 7.056C92.3514 5.43467 92.5328 3.99467 92.7248 2.736C92.8954 2.11733 93.1194 1.66933 93.3968 1.392C93.6954 1.11466 93.9834 0.975998 94.2608 0.975998C94.5168 0.975998 94.7408 1.09333 94.9328 1.328C95.1461 1.56267 95.2528 1.89333 95.2528 2.32C95.2528 2.40533 95.2528 2.48 95.2528 2.544C95.2528 2.608 95.2421 2.68267 95.2208 2.768C94.6874 5.34933 94.3461 8.048 94.1968 10.864C94.0474 13.68 93.9728 16.3893 93.9728 18.992C93.9728 20.0587 93.9834 21.008 94.0048 21.84C94.0474 22.6507 94.0688 23.4933 94.0688 24.368C94.0688 24.8373 93.9621 25.2533 93.7488 25.616C93.5568 25.9787 93.3008 26.16 92.9808 26.16ZM107.085 26.48C105.463 26.48 103.991 26.2453 102.669 25.776C101.367 25.2853 100.333 24.528 99.5645 23.504C98.7965 22.4587 98.4125 21.1147 98.4125 19.472C98.4125 18.1707 98.6258 16.9013 99.0525 15.664C99.5005 14.4267 100.13 13.3067 100.941 12.304C101.751 11.3013 102.722 10.512 103.853 9.936C104.983 9.33867 106.242 9.04 107.629 9.04C108.589 9.04 109.453 9.22133 110.221 9.584C111.01 9.94667 111.639 10.4587 112.109 11.12C112.578 11.7813 112.812 12.5707 112.812 13.488C112.812 14.4693 112.599 15.408 112.173 16.304C111.767 17.1787 111.213 17.9573 110.509 18.64C109.805 19.3227 109.005 19.8667 108.109 20.272C107.234 20.656 106.317 20.848 105.357 20.848C104.525 20.848 103.746 20.784 103.021 20.656C102.295 20.5067 101.623 20.2827 101.005 19.984C101.005 20.7947 101.197 21.488 101.581 22.064C101.965 22.6187 102.455 23.0773 103.053 23.44C103.65 23.7813 104.269 24.0373 104.909 24.208C105.57 24.3573 106.178 24.432 106.733 24.432C107.181 24.432 107.629 24.4107 108.077 24.368C108.525 24.304 109.015 24.272 109.549 24.272C110.338 24.272 110.733 24.6133 110.733 25.296C110.733 25.8293 110.359 26.1707 109.613 26.32C109.207 26.4053 108.791 26.448 108.365 26.448C107.938 26.4693 107.511 26.48 107.085 26.48ZM105.357 18.288C106.103 18.288 106.882 18.1387 107.693 17.84C108.503 17.5413 109.186 17.072 109.741 16.432C110.317 15.792 110.605 14.9813 110.605 14C110.605 13.1253 110.327 12.4213 109.773 11.888C109.239 11.3333 108.525 11.056 107.629 11.056C106.818 11.056 106.018 11.248 105.229 11.632C104.461 11.9947 103.757 12.496 103.117 13.136C102.477 13.7547 101.965 14.4587 101.581 15.248C101.197 16.0373 101.005 16.848 101.005 17.68C101.495 17.936 102.114 18.1067 102.861 18.192C103.607 18.256 104.439 18.288 105.357 18.288ZM121.955 26.32C120.995 26.32 120.099 26.1067 119.267 25.68C118.457 25.2533 117.774 24.6773 117.219 23.952C116.665 23.2267 116.302 22.416 116.131 21.52V19.824C116.131 18.608 116.355 17.3813 116.803 16.144C117.251 14.9067 117.87 13.7653 118.659 12.72C119.47 11.6747 120.419 10.8427 121.507 10.224C122.617 9.584 123.811 9.264 125.091 9.264C125.902 9.264 126.681 9.40267 127.427 9.68C128.195 9.95733 128.878 10.2773 129.475 10.64C129.603 9.744 129.763 9.12533 129.955 8.784C130.147 8.44267 130.478 8.272 130.947 8.272C131.31 8.272 131.566 8.38933 131.715 8.624C131.865 8.83733 131.939 9.22133 131.939 9.776C131.939 11.056 131.907 12.3147 131.843 13.552C131.801 14.768 131.779 16.016 131.779 17.296C131.779 18.32 131.833 19.376 131.939 20.464C132.067 21.552 132.131 22.5973 132.131 23.6C132.131 23.92 132.131 24.24 132.131 24.56C132.153 24.88 132.099 25.1467 131.971 25.36C131.865 25.552 131.63 25.648 131.267 25.648C130.755 25.648 130.371 25.4133 130.115 24.944C129.881 24.4533 129.721 23.8667 129.635 23.184C129.55 22.5013 129.465 21.8613 129.379 21.264C129.166 21.84 128.803 22.4053 128.291 22.96C127.801 23.5147 127.299 23.9947 126.787 24.4C126.297 24.784 125.913 25.0613 125.635 25.232C125.379 25.3813 125.379 25.36 125.635 25.168C125.166 25.5093 124.579 25.7867 123.875 26C123.193 26.2133 122.553 26.32 121.955 26.32ZM121.635 24.304C122.595 24.304 123.491 24.0267 124.323 23.472C125.155 22.9173 125.881 22.2027 126.499 21.328C127.139 20.4533 127.63 19.536 127.971 18.576C128.334 17.616 128.515 16.7307 128.515 15.92C128.515 15.5147 128.462 15.056 128.355 14.544C128.27 14.0107 128.099 13.4987 127.843 13.008C127.587 12.5173 127.235 12.112 126.787 11.792C126.361 11.472 125.795 11.312 125.091 11.312C124.174 11.312 123.299 11.6107 122.467 12.208C121.635 12.784 120.889 13.5307 120.227 14.448C119.587 15.344 119.086 16.272 118.723 17.232C118.361 18.192 118.179 19.056 118.179 19.824C118.179 20.4 118.275 21.04 118.467 21.744C118.681 22.448 119.033 23.056 119.523 23.568C120.035 24.0587 120.739 24.304 121.635 24.304ZM137.615 25.36C137.295 25.36 137.061 25.2853 136.911 25.136C136.762 24.9867 136.655 24.7733 136.591 24.496C136.485 24.1333 136.431 23.7493 136.431 23.344V22.096C136.431 21.4133 136.453 20.8267 136.495 20.336C136.538 19.824 136.559 19.2693 136.559 18.672C136.559 18.4587 136.549 18.2347 136.527 18C136.527 17.744 136.517 17.4773 136.495 17.2C136.41 16.1547 136.293 15.056 136.143 13.904C135.994 12.752 135.919 11.7067 135.919 10.768V9.52C136.047 9.22133 136.165 9.04 136.271 8.976C136.399 8.912 136.57 8.88 136.783 8.88C137.295 8.88 137.658 9.08267 137.871 9.488C138.085 9.872 138.223 10.3307 138.287 10.864C138.373 11.376 138.426 11.824 138.447 12.208C138.469 12.3573 138.501 12.6773 138.543 13.168C138.607 13.6587 138.671 14.2133 138.735 14.832C138.799 15.4293 138.853 16.0053 138.895 16.56C138.959 17.1147 138.991 17.5413 138.991 17.84C139.333 17.136 139.738 16.4107 140.207 15.664C140.677 14.896 141.146 14.1813 141.615 13.52C142.106 12.8587 142.543 12.3253 142.927 11.92C143.482 11.3013 144.133 10.8213 144.879 10.48C145.647 10.1173 146.405 9.936 147.151 9.936C148.026 9.936 148.794 10.1813 149.455 10.672C150.117 11.1627 150.682 11.8027 151.151 12.592C151.642 13.3813 152.047 14.2347 152.367 15.152C152.687 16.048 152.943 16.9227 153.135 17.776C153.413 18.9067 153.615 19.8987 153.743 20.752C153.893 21.6053 154.021 22.576 154.127 23.664C154.127 24.1333 154.031 24.5067 153.839 24.784C153.647 25.0613 153.413 25.2 153.135 25.2C152.73 25.2 152.442 25.1147 152.271 24.944C152.101 24.752 151.983 24.4533 151.919 24.048C151.77 23.2373 151.621 22.32 151.471 21.296C151.343 20.272 151.162 19.2373 150.927 18.192C150.693 17.1253 150.351 16.1547 149.903 15.28C149.733 14.8747 149.519 14.4587 149.263 14.032C149.007 13.6053 148.698 13.2427 148.335 12.944C147.973 12.6453 147.525 12.496 146.991 12.496C146.287 12.496 145.573 12.8053 144.847 13.424C144.143 14.0427 143.471 14.8427 142.831 15.824C142.191 16.8053 141.605 17.8613 141.071 18.992C140.538 20.1013 140.09 21.1573 139.727 22.16C139.621 22.5013 139.482 22.8853 139.311 23.312C139.162 23.7173 139.002 24.1013 138.831 24.464C138.682 24.7627 138.511 24.9867 138.319 25.136C138.149 25.2853 137.914 25.36 137.615 25.36Z" fill="white"/>
</svg>
