<svg width="50" height="53" viewBox="0 0 50 53" fill="none" xmlns="http://www.w3.org/2000/svg">
<path fill-rule="evenodd" clip-rule="evenodd" d="M7.36821 21.4877C8.53293 21.4877 9.59098 21.9594 10.3572 22.7193C11.1235 23.4792 11.5991 24.5284 11.5991 25.6836V41.3465C11.5991 42.5017 11.1235 43.5509 10.3572 44.3108C9.59097 45.0707 8.53292 45.5424 7.36821 45.5424C6.20349 45.5424 5.14544 45.0707 4.37919 44.3108C3.61293 43.5509 3.13729 42.5017 3.13729 41.3465V25.6836C3.13729 24.5284 3.61293 23.4792 4.37919 22.7193C5.14544 21.9594 6.2035 21.4877 7.36821 21.4877ZM30.7666 37.4621V30.6201V23.7781C30.7666 23.7355 30.7688 23.6935 30.7733 23.652L30.7736 19.0097C25.2186 15.7924 20.4498 14.1836 15.7159 14.1836C10.982 14.1836 6.21323 15.7924 0.658203 19.0097L0.660451 52.3298H30.7713L30.7714 51.2533C30.7682 51.2179 30.7666 51.1821 30.7666 51.1459V44.304L30.7666 37.4621Z" fill="#4C95EF"/>
<path fill-rule="evenodd" clip-rule="evenodd" d="M11.7002 7.15681H19.731L18.8846 0.129883H12.5464L11.7002 7.15681Z" fill="#1C2649"/>
<path fill-rule="evenodd" clip-rule="evenodd" d="M18.7272 8.16065H12.7041V13.1391C13.6772 12.9469 14.6458 12.8507 15.6157 12.8507C16.6519 12.8507 17.6867 12.9604 18.7272 13.1799V8.16065Z" fill="#7A7A7A"/>
<path fill-rule="evenodd" clip-rule="evenodd" d="M47.4933 24.2222H31.7773V29.2414H47.4933C48.1392 29.2414 48.7273 28.9586 49.1543 28.5032C49.5814 28.0478 49.8466 27.4206 49.8466 26.7318C49.8466 26.043 49.5814 25.4158 49.1543 24.9604C48.7273 24.5049 48.1392 24.2222 47.4933 24.2222Z" fill="#7A7A7A"/>
<path fill-rule="evenodd" clip-rule="evenodd" d="M47.4933 31.249H31.7773V36.2683H47.4933C48.1392 36.2683 48.7273 35.9855 49.1543 35.53C49.5814 35.0746 49.8466 34.4474 49.8466 33.7586C49.8466 33.0699 49.5814 32.4427 49.1543 31.9872C48.7273 31.5318 48.1392 31.249 47.4933 31.249Z" fill="#4C95EF"/>
<path fill-rule="evenodd" clip-rule="evenodd" d="M47.4933 38.2759H31.7773V43.2951H47.4933C48.1392 43.2951 48.7273 43.0123 49.1543 42.5569C49.5814 42.1014 49.8466 41.4742 49.8466 40.7854C49.8466 40.0967 49.5814 39.4695 49.1543 39.0141C48.7273 38.5587 48.1392 38.2759 47.4933 38.2759Z" fill="#1C2649"/>
<path fill-rule="evenodd" clip-rule="evenodd" d="M47.4933 45.3027H31.7773V52.3297H47.4933C48.1392 52.3297 48.7272 51.9338 49.1543 51.2961C49.5814 50.6586 49.8466 49.7806 49.8466 48.8162C49.8466 47.852 49.5814 46.9739 49.1543 46.3362C48.7273 45.6986 48.1392 45.3027 47.4933 45.3027Z" fill="#4C95EF"/>
</svg>
