<?xml version="1.0" encoding="UTF-8"?>
<svg id="Layer_2" data-name="Layer 2" xmlns="http://www.w3.org/2000/svg" viewBox="0 0 32 23.96">
  <defs>
    <style>
      .cls-1 {
        fill: #4c95ef;
      }
    </style>
  </defs>
  <g id="Layer_1-2" data-name="Layer 1">
    <path class="cls-1" d="m31.09,20.54l-13.57-7.86c-.25-.15-.41-.42-.41-.72v-.15c0-.43.34-.71.64-.81.77-.28,1.48-.75,2.06-1.34,1.05-1.07,1.63-2.49,1.63-4s-.58-2.92-1.62-4c-1.06-1.08-2.46-1.67-3.94-1.67s-2.89.6-3.95,1.67c-1.05,1.07-1.62,2.49-1.62,3.99,0,.69.56,1.25,1.25,1.25s1.25-.56,1.25-1.25c0-.85.32-1.65.91-2.25,1.16-1.19,3.15-1.19,4.31,0,.59.6.91,1.4.91,2.25s-.32,1.65-.91,2.25c-.32.33-.71.58-1.13.74-1.38.51-2.27,1.75-2.27,3.16v.15c0,1.19.63,2.29,1.65,2.88l11.41,6.61H4.64l7.56-3.82c.62-.31.86-1.06.55-1.68s-1.06-.86-1.68-.55L1,20.5c-.76.38-1.15,1.23-.95,2.06.2.82.92,1.4,1.77,1.4h28.36c.83,0,1.54-.54,1.75-1.35.22-.81-.12-1.64-.85-2.06Z"/>
  </g>
</svg>