<svg width="66" height="23" viewBox="0 0 66 23" fill="none" xmlns="http://www.w3.org/2000/svg">
<path d="M1.24675 21.838C0.86275 21.838 0.60675 21.7954 0.47875 21.71C0.372083 21.6034 0.31875 21.3687 0.31875 21.006C0.31875 20.622 0.393417 20.366 0.54275 20.238C0.713417 20.0887 0.89475 19.9714 1.08675 19.886C1.27875 19.8007 1.46008 19.7154 1.63075 19.63C1.80142 19.5447 1.96142 19.4274 2.11075 19.278C2.49475 18.9367 2.68675 18.478 2.68675 17.902C2.68675 17.6034 2.67608 17.2194 2.65475 16.75C2.65475 16.2594 2.65475 15.7367 2.65475 15.182C2.65475 14.3074 2.65475 13.4007 2.65475 12.462C2.67608 11.502 2.70808 10.606 2.75075 9.77405C2.79342 8.94205 2.84675 8.29138 2.91075 7.82205C2.97475 7.26738 3.02808 6.71271 3.07075 6.15805C3.13475 5.60338 3.19875 5.03805 3.26275 4.46205V3.40605C3.04942 3.17138 2.86808 3.00071 2.71875 2.89405C2.56942 2.76605 2.43075 2.65938 2.30275 2.57405L1.69475 2.19005C1.54542 2.10471 1.42808 2.01938 1.34275 1.93405C1.27875 1.82738 1.24675 1.66738 1.24675 1.45405C1.24675 1.02738 1.48142 0.814045 1.95075 0.814045C2.31342 0.814045 2.64408 0.846045 2.94275 0.910046C3.26275 0.952713 3.56142 0.974047 3.83875 0.974047H4.19075C4.29742 0.974047 4.56408 0.952713 4.99075 0.910046C5.41742 0.846045 5.86542 0.782045 6.33475 0.718046C6.76142 0.654046 7.16675 0.600712 7.55075 0.558046C7.93475 0.494046 8.16942 0.462046 8.25475 0.462046H8.44675C8.78808 0.462046 9.02275 0.526045 9.15075 0.654045C9.27875 0.760712 9.34275 0.974045 9.34275 1.29405C9.34275 1.63538 9.27875 1.85938 9.15075 1.96605C9.04408 2.07271 8.88408 2.14738 8.67075 2.19005C8.50008 2.23271 8.31875 2.27538 8.12675 2.31805C7.93475 2.36071 7.75342 2.40338 7.58275 2.44605C7.36942 2.51005 7.14542 2.60605 6.91075 2.73405C6.69742 2.86205 6.48408 3.07538 6.27075 3.37405C6.12142 4.18471 5.97208 4.99538 5.82275 5.80605C5.69475 6.59538 5.57742 7.39538 5.47075 8.20605C5.21475 10.4034 5.08675 12.6434 5.08675 14.926C5.08675 15.3314 5.08675 15.6834 5.08675 15.982C5.10808 16.2807 5.12942 16.6007 5.15075 16.942C5.17208 17.2834 5.21475 17.7207 5.27875 18.254C5.40675 18.702 5.79075 18.99 6.43075 19.118C6.58008 19.1394 6.74008 19.1714 6.91075 19.214C7.10275 19.2354 7.29475 19.2674 7.48675 19.31C7.80675 19.374 8.04142 19.47 8.19075 19.598C8.34008 19.7047 8.41475 19.8967 8.41475 20.174C8.41475 20.3874 8.32942 20.5687 8.15875 20.718C8.00942 20.846 7.73208 20.9634 7.32675 21.07C7.13475 21.1127 6.93208 21.1447 6.71875 21.166C6.50542 21.1874 6.29208 21.2087 6.07875 21.23L4.86275 21.326C4.79875 21.3474 4.71342 21.358 4.60675 21.358C4.50008 21.358 4.37208 21.3794 4.22275 21.422C4.09475 21.4434 3.94542 21.4754 3.77475 21.518C3.62542 21.5394 3.46542 21.5714 3.29475 21.614C3.01742 21.6567 2.74008 21.71 2.46275 21.774C2.20675 21.8167 2.03608 21.838 1.95075 21.838H1.24675ZM13.8465 22.318C13.6118 22.318 13.4305 22.2114 13.3025 21.998C13.1958 21.7847 13.1212 21.5394 13.0785 21.262C13.0358 20.9847 12.9932 20.75 12.9505 20.558V18.03C12.9505 16.75 13.0038 15.438 13.1105 14.094C13.2385 12.75 13.3025 11.438 13.3025 10.158C13.3025 9.53938 13.2598 8.92071 13.1745 8.30205C13.1105 7.68338 13.0358 7.16071 12.9505 6.73405C12.9292 6.62738 12.9078 6.53138 12.8865 6.44605C12.8865 6.36071 12.8865 6.27538 12.8865 6.19005C12.8865 5.91271 12.9718 5.73138 13.1425 5.64605C13.3132 5.56071 13.6012 5.51805 14.0065 5.51805C14.4972 5.51805 14.8598 5.73138 15.0945 6.15805C15.3292 6.58471 15.4998 7.08605 15.6065 7.66205C15.7345 8.21671 15.8518 8.71805 15.9585 9.16605C16.5772 8.41938 17.2492 7.87538 17.9745 7.53405C18.6998 7.19271 19.3078 6.89405 19.7985 6.63805C20.2678 6.40338 20.7372 6.22205 21.2065 6.09405C21.6972 5.94471 22.2412 5.87005 22.8385 5.87005C23.4358 5.87005 23.9905 6.04071 24.5025 6.38205C25.0358 6.70205 25.3025 7.05405 25.3025 7.43805C25.3025 7.88605 25.1638 8.21671 24.8865 8.43005C24.6092 8.64338 24.2892 8.75005 23.9265 8.75005C23.8198 8.75005 23.7132 8.73938 23.6065 8.71805C23.5212 8.67538 23.4252 8.64338 23.3185 8.62205C23.1692 8.55805 22.9985 8.50471 22.8065 8.46205C22.6358 8.41938 22.4652 8.39805 22.2945 8.39805C21.6332 8.39805 20.9932 8.52605 20.3745 8.78205C19.7558 9.01671 19.2332 9.25138 18.8065 9.48605C18.0598 9.89138 17.4732 10.35 17.0465 10.862C16.6412 11.3527 16.2998 11.8114 16.0225 12.238C15.8732 13.0487 15.7772 13.838 15.7345 14.606C15.6918 15.374 15.6598 15.9714 15.6385 16.398C15.6172 16.846 15.5958 17.3154 15.5745 17.806C15.5532 18.2967 15.5212 18.7874 15.4785 19.278C15.4358 19.79 15.3718 20.2807 15.2865 20.75C15.2012 21.2194 15.0518 21.6034 14.8385 21.902C14.6252 22.1794 14.2945 22.318 13.8465 22.318ZM34.3033 21.998C32.7673 21.998 31.3379 21.6674 30.0153 21.006C28.6926 20.3234 27.6259 19.3847 26.8153 18.19C26.0259 16.974 25.6313 15.566 25.6313 13.966C25.6313 12.878 25.8553 11.8647 26.3033 10.926C26.7726 9.98738 27.3699 9.09138 28.0953 8.23805C28.8206 7.38471 29.5779 6.55271 30.3673 5.74205C30.7299 5.37938 31.1459 5.12338 31.6153 4.97405C32.0846 4.80338 32.5859 4.71805 33.1193 4.71805C34.5913 4.71805 35.9779 4.87805 37.2793 5.19805C38.5806 5.49671 39.7326 5.98738 40.7353 6.67005C41.7593 7.35271 42.5593 8.23805 43.1353 9.32605C43.7113 10.414 43.9993 11.7367 43.9993 13.294C43.9993 14.574 43.7219 15.7474 43.1673 16.814C42.6339 17.8807 41.8979 18.8087 40.9593 19.598C40.0419 20.366 39.0073 20.9634 37.8553 21.39C36.7033 21.7954 35.5193 21.998 34.3033 21.998ZM33.5993 19.63C34.5806 19.63 35.5513 19.4914 36.5113 19.214C37.4926 18.9367 38.3779 18.5207 39.1673 17.966C39.9566 17.39 40.5859 16.6754 41.0553 15.822C41.5459 14.9687 41.7913 13.9554 41.7913 12.782C41.7913 11.7154 41.5566 10.8087 41.0873 10.062C40.6393 9.29405 40.0419 8.67538 39.2953 8.20605C38.5486 7.71538 37.7379 7.35271 36.8633 7.11805C35.9886 6.88338 35.1353 6.76605 34.3033 6.76605C33.9619 6.76605 33.5779 6.79805 33.1513 6.86205C32.7459 6.90471 32.3513 7.10738 31.9673 7.47005C31.4979 7.91805 31.0179 8.37671 30.5273 8.84605C30.0579 9.29405 29.6206 9.79538 29.2153 10.35C28.8099 10.8834 28.4793 11.4807 28.2233 12.142C27.9673 12.8034 27.8393 13.518 27.8393 14.286C27.8393 15.5234 28.0953 16.5367 28.6073 17.326C29.1406 18.1154 29.8446 18.702 30.7193 19.086C31.5939 19.4487 32.5539 19.63 33.5993 19.63ZM49.3028 21.358C48.9828 21.358 48.7481 21.2834 48.5988 21.134C48.4494 20.9847 48.3428 20.7714 48.2788 20.494C48.1721 20.1314 48.1188 19.7474 48.1188 19.342V18.094C48.1188 17.4114 48.1401 16.8247 48.1828 16.334C48.2254 15.822 48.2468 15.2674 48.2468 14.67C48.2468 14.4567 48.2361 14.2327 48.2148 13.998C48.2148 13.742 48.2041 13.4754 48.1828 13.198C48.0974 12.1527 47.9801 11.054 47.8307 9.90205C47.6814 8.75005 47.6068 7.70471 47.6068 6.76605V5.51805C47.7348 5.21938 47.8521 5.03805 47.9588 4.97405C48.0868 4.91005 48.2574 4.87805 48.4708 4.87805C48.9828 4.87805 49.3454 5.08071 49.5588 5.48605C49.7721 5.87005 49.9108 6.32871 49.9748 6.86205C50.0601 7.37405 50.1134 7.82205 50.1348 8.20605C50.1561 8.35538 50.1881 8.67538 50.2308 9.16605C50.2948 9.65671 50.3588 10.2114 50.4227 10.83C50.4868 11.4274 50.5401 12.0034 50.5828 12.558C50.6468 13.1127 50.6788 13.5394 50.6788 13.838C51.0201 13.134 51.4254 12.4087 51.8948 11.662C52.3641 10.894 52.8334 10.1794 53.3028 9.51805C53.7934 8.85671 54.2308 8.32338 54.6148 7.91805C55.1694 7.29938 55.8201 6.81938 56.5668 6.47805C57.3348 6.11538 58.0921 5.93405 58.8388 5.93405C59.7134 5.93405 60.4814 6.17938 61.1428 6.67005C61.8041 7.16071 62.3694 7.80071 62.8388 8.59005C63.3294 9.37938 63.7348 10.2327 64.0548 11.15C64.3748 12.046 64.6308 12.9207 64.8228 13.774C65.1001 14.9047 65.3028 15.8967 65.4308 16.75C65.5801 17.6034 65.7081 18.574 65.8148 19.662C65.8148 20.1314 65.7188 20.5047 65.5268 20.782C65.3348 21.0594 65.1001 21.198 64.8228 21.198C64.4174 21.198 64.1294 21.1127 63.9588 20.942C63.7881 20.75 63.6708 20.4514 63.6068 20.046C63.4574 19.2354 63.3081 18.318 63.1588 17.294C63.0308 16.27 62.8494 15.2354 62.6147 14.19C62.3801 13.1234 62.0388 12.1527 61.5908 11.278C61.4201 10.8727 61.2068 10.4567 60.9508 10.03C60.6948 9.60338 60.3854 9.24071 60.0228 8.94205C59.6601 8.64338 59.2121 8.49405 58.6788 8.49405C57.9748 8.49405 57.2601 8.80338 56.5348 9.42205C55.8308 10.0407 55.1588 10.8407 54.5188 11.822C53.8788 12.8034 53.2921 13.8594 52.7588 14.99C52.2254 16.0994 51.7774 17.1554 51.4148 18.158C51.3081 18.4994 51.1694 18.8834 50.9988 19.31C50.8494 19.7154 50.6894 20.0994 50.5188 20.462C50.3694 20.7607 50.1988 20.9847 50.0068 21.134C49.8361 21.2834 49.6014 21.358 49.3028 21.358Z" fill="white"/>
</svg>
