<svg width="60" height="48" viewBox="0 0 60 48" fill="none" xmlns="http://www.w3.org/2000/svg">
<path d="M6.24932 20.2799C3.2186 20.2799 0.753906 17.8152 0.753906 14.7845C0.753906 11.7538 3.2186 9.28906 6.24932 9.28906C6.75582 9.28906 7.16522 9.69847 7.16522 10.205C7.16522 10.7115 6.75582 11.1209 6.24932 11.1209C4.22884 11.1209 2.58571 12.764 2.58571 14.7845C2.58571 16.805 4.22884 18.4481 6.24932 18.4481C6.75582 18.4481 7.16522 18.8575 7.16522 19.364C7.16522 19.8705 6.75582 20.2799 6.24932 20.2799Z" fill="#1C2649"/>
<path d="M16.3231 11.1207C15.8166 11.1207 15.4072 10.7113 15.4072 10.2048C15.4072 9.69832 15.8166 9.28891 16.3231 9.28891C18.3436 9.28891 19.9867 7.64578 19.9867 5.6253C19.9867 3.60482 18.3436 1.96169 16.3231 1.96169C15.8166 1.96169 15.4072 1.55228 15.4072 1.04579C15.4072 0.539291 15.8166 0.129883 16.3231 0.129883C19.3539 0.129883 21.8185 2.59458 21.8185 5.6253C21.8185 8.65602 19.3539 11.1207 16.3231 11.1207Z" fill="#1C2649"/>
<path d="M16.3229 11.1223H6.24793C5.74144 11.1223 5.33203 10.7129 5.33203 10.2064C5.33203 9.69994 5.74144 9.29053 6.24793 9.29053H16.3229C16.8294 9.29053 17.2388 9.69994 17.2388 10.2064C17.2388 10.7129 16.8294 11.1223 16.3229 11.1223Z" fill="#1C2649"/>
<path d="M16.3229 20.2796H6.24793C5.74144 20.2796 5.33203 19.8702 5.33203 19.3637C5.33203 18.8572 5.74144 18.4478 6.24793 18.4478H16.3229C16.8294 18.4478 17.2388 18.8572 17.2388 19.3637C17.2388 19.8702 16.8294 20.2796 16.3229 20.2796Z" fill="#1C2649"/>
<path d="M16.3233 1.96315H1.66883C1.16234 1.96315 0.75293 1.55374 0.75293 1.04725C0.75293 0.540756 1.16234 0.131348 1.66883 0.131348H16.3233C16.8298 0.131348 17.2392 0.540756 17.2392 1.04725C17.2392 1.55374 16.8298 1.96315 16.3233 1.96315Z" fill="#1C2649"/>
<path d="M50.8331 26.0693C50.5987 26.0693 50.3642 25.9796 50.1856 25.801C49.8275 25.4429 49.8275 24.864 50.1856 24.5059L51.3946 23.2969C51.7527 22.9388 52.3315 22.9388 52.6897 23.2969C53.0478 23.655 53.0478 24.2339 52.6897 24.592L51.4807 25.801C51.3012 25.9805 51.0676 26.0693 50.8331 26.0693Z" fill="#7A7A7A"/>
<path d="M11.7454 17.5322C12.2492 17.5322 12.5651 17.9334 12.4479 18.4234L11.9964 20.3056C11.8782 20.7956 11.3699 21.1958 10.8661 21.1958H8.07997C7.57622 21.1958 7.16406 20.7837 7.16406 20.2799V20.2708C7.16406 19.767 7.16406 18.9445 7.16406 18.4436C7.16406 17.9426 7.57622 17.5322 8.07997 17.5322H11.7454Z" fill="#7A7A7A"/>
<path d="M34.6415 15.7012C35.1453 15.7012 35.5574 16.1133 35.5574 16.6171V17.533C35.5574 18.0367 35.1453 18.4489 34.6415 18.4489H31.8847C31.3809 18.4489 30.9688 18.0367 30.9688 17.533V16.6171C30.9688 16.1133 31.3809 15.7012 31.8847 15.7012H34.6415Z" fill="#7A7A7A"/>
<path d="M51.7502 24.2366C55.8901 28.3765 58.4547 34.1009 58.4547 40.4298H51.1183C51.1183 27.772 40.8776 17.5322 28.2207 17.5322H30.9684H35.5571C41.886 17.5322 47.6104 20.0968 51.7502 24.2366Z" fill="#1C2649"/>
<path d="M51.118 40.4298H5.33203L9.94818 21.1958L10.8274 17.5322H28.2204C40.8782 17.5322 51.118 27.772 51.118 40.4298ZM37.3795 34.0276V34.0185C37.3795 26.9294 31.6459 21.1958 24.5568 21.1958H14.5369L11.4594 34.0276H37.3795Z" fill="#4C95EF"/>
<path d="M58.4544 40.4297V43.1774L57.5385 44.0933H9.91154H8.99564C8.99564 42.0692 7.35618 40.4297 5.33203 40.4297H51.118H58.4544Z" fill="#E6E9ED"/>
<path d="M9.91211 44.0933H57.539V46.841H9.91211V44.0933Z" fill="#CCD1D9"/>
<path d="M58.455 47.7566H8.99989C8.49339 47.7566 8.08398 47.3472 8.08398 46.8407C8.08398 46.3342 8.49339 45.9248 8.99989 45.9248H58.455C58.9615 45.9248 59.3709 46.3342 59.3709 46.8407C59.3709 47.3472 58.9615 47.7566 58.455 47.7566Z" fill="#E6E9ED"/>
<path d="M57.5389 44.093C58.0448 44.093 58.4549 43.683 58.4549 43.1771C58.4549 42.6713 58.0448 42.2612 57.5389 42.2612C57.0331 42.2612 56.623 42.6713 56.623 43.1771C56.623 43.683 57.0331 44.093 57.5389 44.093Z" fill="#E6E9ED"/>
</svg>
