<svg width="55" height="54" viewBox="0 0 55 54" fill="none" xmlns="http://www.w3.org/2000/svg">
<circle opacity="0.5" cx="27.338" cy="26.9674" r="26.756" fill="#D7F0FF"/>
<path d="M27.2349 13.4927H31.5146V16.4631C31.5118 16.9118 31.5981 17.3565 31.7685 17.7715C31.9389 18.1866 32.19 18.5636 32.5073 18.8809C32.8245 19.1981 33.2016 19.4493 33.6166 19.6197C34.0317 19.7901 34.4764 19.8764 34.9251 19.8736H37.8955V24.1533C37.8946 25.0604 37.5339 25.9302 36.8924 26.5717C36.2509 27.2131 35.3812 27.5739 34.474 27.5748H27.2349C26.3277 27.5739 25.458 27.2131 24.8165 26.5717C24.175 25.9302 23.8143 25.0604 23.8134 24.1533V16.9142C23.8143 16.007 24.175 15.1372 24.8165 14.4958C25.458 13.8543 26.3277 13.4935 27.2349 13.4927Z" fill="#4C95EF"/>
<path d="M34.9253 18.9937C34.592 18.9973 34.2614 18.9342 33.9528 18.8083C33.6442 18.6824 33.3639 18.4962 33.1282 18.2605C32.8925 18.0248 32.7063 17.7445 32.5804 17.4359C32.4544 17.1273 32.3914 16.7966 32.3949 16.4634V14.373L37.0156 18.9937H34.9253Z" fill="#4C95EF"/>
<path d="M24.7398 20.9724H28.2242C28.443 20.9724 28.6192 20.7949 28.6192 20.5771V19.4158C28.6192 19.198 28.443 19.0205 28.2242 19.0205H24.7398C24.5212 19.0205 24.3447 19.1975 24.3447 19.4158V20.5771C24.3447 20.7949 24.5209 20.9724 24.7398 20.9724Z" fill="#4C95EF" stroke="white" stroke-width="0.5"/>
<path d="M22.4175 21.1177H23.8694C24.0882 21.1177 24.2644 20.9402 24.2644 20.7224V19.2708C24.2644 19.053 24.0882 18.8755 23.8694 18.8755H22.4175C22.1986 18.8755 22.0225 19.053 22.0225 19.2708V20.7226C22.0225 20.9405 22.1989 21.1177 22.4175 21.1177Z" fill="#4C95EF" stroke="white" stroke-width="0.5"/>
<path d="M17.667 20.5768C17.6666 20.7957 17.844 20.9724 18.062 20.9724H21.5464C21.7653 20.9724 21.9415 20.7949 21.9415 20.5771V19.4158C21.9415 19.198 21.7653 19.0205 21.5464 19.0205H18.062C17.8434 19.0205 17.667 19.1975 17.667 19.4158V20.5768ZM17.667 20.5768C17.667 20.5767 17.667 20.5765 17.667 20.5764L17.917 20.5771H17.667V20.5768Z" fill="#4C95EF" stroke="white" stroke-width="0.5"/>
<path d="M26.125 21.1255H25.8633L25.8753 21.3869C25.9068 22.0781 26.1454 22.6638 26.6051 23.1049L26.6051 23.1049C27.1566 23.6341 27.9074 23.8553 28.4713 23.9498L28.7815 24.0018L28.7621 23.6879L28.6279 21.5052L28.6279 21.5052C28.6149 21.2935 28.4367 21.1255 28.2242 21.1255H26.125Z" fill="#4C95EF" stroke="white" stroke-width="0.5"/>
<path d="M20.4108 21.3869L20.4227 21.1255L17.9079 21.5205L17.6584 21.5052L17.6584 21.5054C17.6584 21.5056 17.6584 21.5057 17.6584 21.5059L17.5239 23.6867L17.5045 24.0008L17.8149 23.9486C18.3793 23.8537 19.1317 23.6326 19.6825 23.1037L19.6826 23.1035C20.141 22.6627 20.3792 22.0774 20.4108 21.3869Z" fill="#4C95EF" stroke="white" stroke-width="0.5"/>
<path d="M21.4018 39.9994L21.4018 39.9994C21.359 40.2802 21.1045 40.4988 20.8207 40.4988H17.046C16.7419 40.4988 16.5052 40.2479 16.5234 39.9442L16.5235 39.9438L17.4965 24.1341L17.509 23.9318L17.7095 23.9021C18.3097 23.8134 19.0806 23.5919 19.6363 23.0589L19.6363 23.0588C20.0785 22.6349 20.3189 22.0716 20.3467 21.3661L20.3562 21.126H20.5965H23.1433H25.6895H25.9299L25.9393 21.3661C25.9672 22.0715 26.2078 22.6349 26.6498 23.0589L26.6498 23.0589C27.2054 23.5918 27.9765 23.8131 28.5767 23.9022L28.7771 23.9319L28.7895 24.1341L29.7626 39.9436C29.7813 40.2474 29.545 40.4988 29.2406 40.4988H25.4659C25.1827 40.4988 24.9275 40.2806 24.8852 39.9992L24.8852 39.9994L25.1324 39.9618L24.8851 39.9987L21.4018 39.9994ZM21.4018 39.9994L23.1435 28.5549L21.4018 39.9994Z" fill="#4C95EF" stroke="white" stroke-width="0.5"/>
</svg>
