<svg width="46" height="53" viewBox="0 0 46 53" fill="none" xmlns="http://www.w3.org/2000/svg">
<path d="M0.953125 1.99417C0.953125 1.49973 1.14954 1.02554 1.49916 0.675919C1.84878 0.326298 2.32297 0.129883 2.81741 0.129883H43.8317C44.3262 0.129883 44.8003 0.326298 45.15 0.675919C45.4996 1.02554 45.696 1.49973 45.696 1.99417V50.4656C45.696 50.96 45.4996 51.4342 45.15 51.7838C44.8003 52.1335 44.3262 52.3299 43.8317 52.3299H2.81741C2.32297 52.3299 1.84878 52.1335 1.49916 51.7838C1.14954 51.4342 0.953125 50.96 0.953125 50.4656V1.99417Z" fill="#D7F0FF"/>
<path d="M23.3245 48.6016C32.591 48.6016 40.1031 41.0896 40.1031 31.823C40.1031 22.5565 32.591 15.0444 23.3245 15.0444C14.0579 15.0444 6.5459 22.5565 6.5459 31.823C6.5459 41.0896 14.0579 48.6016 23.3245 48.6016Z" fill="#FFFFFD"/>
<path d="M23.3244 44.8729C30.5317 44.8729 36.3744 39.0303 36.3744 31.8229C36.3744 24.6156 30.5317 18.7729 23.3244 18.7729C16.1171 18.7729 10.2744 24.6156 10.2744 31.8229C10.2744 39.0303 16.1171 44.8729 23.3244 44.8729Z" fill="white"/>
<path d="M45.696 1.99417C45.696 1.49973 45.4996 1.02554 45.15 0.675919C44.8003 0.326298 44.3262 0.129883 43.8317 0.129883H2.81741C2.32297 0.129883 1.84878 0.326298 1.49916 0.675919C1.14954 1.02554 0.953125 1.49973 0.953125 1.99417V11.3156H45.696V1.99417Z" fill="#4C95EF"/>
<path d="M4.68164 3.85841H19.5959V7.58698H4.68164V3.85841ZM26.1209 2.92627H42.8995V4.79056H26.1209V2.92627ZM26.1209 6.65484H27.9852V8.51913H26.1209V6.65484ZM29.8495 6.65484H31.7138V8.51913H29.8495V6.65484ZM33.5781 6.65484H35.4424V8.51913H33.5781V6.65484ZM37.3067 6.65484H39.1709V8.51913H37.3067V6.65484ZM41.0352 6.65484H42.8995V8.51913H41.0352V6.65484ZM34.8067 25.6165C32.5993 21.5412 28.2854 18.7727 23.3245 18.7727C17.9488 18.7727 13.3357 22.0249 11.3362 26.667C19.9474 29.8624 26.2831 22.8173 34.8067 25.6165Z" fill="#1C2649"/>
<path d="M11.3361 26.6673C10.6348 28.2956 10.2735 30.05 10.2744 31.823C10.2744 39.0303 16.1171 44.873 23.3244 44.873C30.5318 44.873 36.3744 39.0303 36.3744 31.823C36.3744 29.5765 35.8058 27.4633 34.8066 25.6167C26.283 22.8175 19.9473 29.8627 11.3361 26.6673Z" fill="#4C95EF"/>
<path d="M29.8493 35.5514C27.793 35.5514 26.1208 33.8791 26.1208 31.8228C26.1208 29.7665 27.793 28.0942 29.8493 28.0942C31.9056 28.0942 33.5779 29.7665 33.5779 31.8228C33.5779 33.8791 31.9056 35.5514 29.8493 35.5514ZM29.8493 29.9585C28.8212 29.9585 27.9851 30.7947 27.9851 31.8228C27.9851 32.851 28.8212 33.6871 29.8493 33.6871C30.8775 33.6871 31.7136 32.851 31.7136 31.8228C31.7136 30.7947 30.8775 29.9585 29.8493 29.9585ZM18.6636 36.4835C17.1219 36.4835 15.8672 35.2289 15.8672 33.6871C15.8672 32.1453 17.1219 30.8907 18.6636 30.8907C20.2054 30.8907 21.46 32.1453 21.46 33.6871C21.46 35.2289 20.2054 36.4835 18.6636 36.4835ZM18.6636 32.755C18.4236 32.7657 18.197 32.8686 18.0309 33.0422C17.8649 33.2159 17.7722 33.4468 17.7722 33.6871C17.7722 33.9273 17.8649 34.1583 18.0309 34.332C18.197 34.5056 18.4236 34.6085 18.6636 34.6192C18.9036 34.6085 19.1302 34.5056 19.2963 34.332C19.4623 34.1583 19.555 33.9273 19.555 33.6871C19.555 33.4468 19.4623 33.2159 19.2963 33.0422C19.1302 32.8686 18.9036 32.7657 18.6636 32.755ZM24.2565 42.0764C22.7147 42.0764 21.46 40.8217 21.46 39.28C21.46 37.7382 22.7147 36.4835 24.2565 36.4835C25.7982 36.4835 27.0529 37.7382 27.0529 39.28C27.0529 40.8217 25.7982 42.0764 24.2565 42.0764ZM24.2565 38.3478C24.0165 38.3585 23.7899 38.4614 23.6238 38.6351C23.4578 38.8087 23.3651 39.0397 23.3651 39.28C23.3651 39.5202 23.4578 39.7512 23.6238 39.9248C23.7899 40.0985 24.0165 40.2014 24.2565 40.2121C24.4965 40.2014 24.7231 40.0985 24.8891 39.9248C25.0552 39.7512 25.1479 39.5202 25.1479 39.28C25.1479 39.0397 25.0552 38.8087 24.8891 38.6351C24.7231 38.4614 24.4965 38.3585 24.2565 38.3478Z" fill="white"/>
</svg>
