<svg width="129" height="34" viewBox="0 0 129 34" fill="none" xmlns="http://www.w3.org/2000/svg">
<path d="M2.13255 24.7586C1.72721 24.7586 1.43921 24.6946 1.26855 24.5666C1.11921 24.4173 1.01255 24.1826 0.948547 23.8626V22.4226C0.948547 20.6519 1.02321 18.8813 1.17255 17.1106C1.32188 15.3186 1.46055 13.5266 1.58855 11.7346C1.73788 9.92126 1.81255 8.11859 1.81255 6.32659C1.81255 5.83593 1.94055 5.43059 2.19655 5.11059C2.45255 4.79059 2.78321 4.63059 3.18855 4.63059C3.63655 4.63059 3.92455 4.75859 4.05255 5.01459C4.20188 5.27059 4.26588 5.57993 4.24455 5.94259C4.24455 6.30526 4.24455 6.65726 4.24455 6.99859C4.24455 9.36659 4.12721 11.7666 3.89255 14.1986C3.65788 16.6093 3.54055 19.1693 3.54055 21.8786C4.15921 21.7933 4.92721 21.6973 5.84455 21.5906C6.76188 21.4839 7.66855 21.3773 8.56455 21.2706C9.48188 21.1639 10.2179 21.0893 10.7725 21.0466H11.7645C11.9992 21.0466 12.2979 21.0466 12.6605 21.0466C13.0232 21.0466 13.3859 21.0786 13.7485 21.1426C14.1325 21.1853 14.4419 21.2919 14.6765 21.4626C14.9325 21.6333 15.0605 21.8893 15.0605 22.2306C15.0605 22.7639 14.8899 23.1053 14.5485 23.2546C14.2285 23.4039 13.8552 23.4786 13.4285 23.4786C13.2579 23.4786 13.0872 23.4786 12.9165 23.4786C12.7459 23.4573 12.5752 23.4466 12.4045 23.4466C11.1245 23.4466 9.59921 23.5533 7.82855 23.7666C6.05788 23.9586 4.31921 24.2893 2.61255 24.7586H2.13255ZM23.297 25.8786C22.337 25.8786 21.441 25.6653 20.609 25.2386C19.7984 24.8119 19.1157 24.2359 18.561 23.5106C18.0064 22.7853 17.6437 21.9746 17.473 21.0786V19.3826C17.473 18.1666 17.697 16.9399 18.145 15.7026C18.593 14.4653 19.2117 13.3239 20.001 12.2786C20.8117 11.2333 21.761 10.4013 22.849 9.78259C23.9584 9.14259 25.153 8.82259 26.433 8.82259C27.2437 8.82259 28.0224 8.96126 28.769 9.23859C29.537 9.51593 30.2197 9.83593 30.817 10.1986C30.945 9.30259 31.105 8.68393 31.297 8.34259C31.489 8.00126 31.8197 7.83059 32.289 7.83059C32.6517 7.83059 32.9077 7.94793 33.057 8.18259C33.2064 8.39593 33.281 8.77993 33.281 9.33459C33.281 10.6146 33.249 11.8733 33.185 13.1106C33.1424 14.3266 33.121 15.5746 33.121 16.8546C33.121 17.8786 33.1744 18.9346 33.281 20.0226C33.409 21.1106 33.473 22.1559 33.473 23.1586C33.473 23.4786 33.473 23.7986 33.473 24.1186C33.4944 24.4386 33.441 24.7053 33.313 24.9186C33.2064 25.1106 32.9717 25.2066 32.609 25.2066C32.097 25.2066 31.713 24.9719 31.457 24.5026C31.2224 24.0119 31.0624 23.4253 30.977 22.7426C30.8917 22.0599 30.8064 21.4199 30.721 20.8226C30.5077 21.3986 30.145 21.9639 29.633 22.5186C29.1424 23.0733 28.641 23.5533 28.129 23.9586C27.6384 24.3426 27.2544 24.6199 26.977 24.7906C26.721 24.9399 26.721 24.9186 26.977 24.7266C26.5077 25.0679 25.921 25.3453 25.217 25.5586C24.5344 25.7719 23.8944 25.8786 23.297 25.8786ZM22.977 23.8626C23.937 23.8626 24.833 23.5853 25.665 23.0306C26.497 22.4759 27.2224 21.7613 27.841 20.8866C28.481 20.0119 28.9717 19.0946 29.313 18.1346C29.6757 17.1746 29.857 16.2893 29.857 15.4786C29.857 15.0733 29.8037 14.6146 29.697 14.1026C29.6117 13.5693 29.441 13.0573 29.185 12.5666C28.929 12.0759 28.577 11.6706 28.129 11.3506C27.7024 11.0306 27.137 10.8706 26.433 10.8706C25.5157 10.8706 24.641 11.1693 23.809 11.7666C22.977 12.3426 22.2304 13.0893 21.569 14.0066C20.929 14.9026 20.4277 15.8306 20.065 16.7906C19.7024 17.7506 19.521 18.6146 19.521 19.3826C19.521 19.9586 19.617 20.5986 19.809 21.3026C20.0224 22.0066 20.3744 22.6146 20.865 23.1266C21.377 23.6173 22.081 23.8626 22.977 23.8626ZM41.549 25.2386C40.461 25.2386 39.6077 24.9399 38.989 24.3426C38.3704 23.7239 37.9224 22.9346 37.645 21.9746C37.389 20.9933 37.261 19.9586 37.261 18.8706C37.261 18.1239 37.2717 17.5266 37.293 17.0786C37.3144 16.6093 37.357 16.1293 37.421 15.6386C37.5064 15.1479 37.6237 14.4759 37.773 13.6226C37.8584 13.1959 37.9437 12.7693 38.029 12.3426C38.1144 11.8946 38.2317 11.4679 38.381 11.0626C38.5517 10.5719 38.733 10.2306 38.925 10.0386C39.1384 9.82526 39.3197 9.71859 39.469 9.71859C39.8744 9.71859 40.173 9.83593 40.365 10.0706C40.5784 10.2839 40.685 10.5613 40.685 10.9026C40.685 11.3719 40.621 11.8093 40.493 12.2146C40.365 12.6199 40.2584 13.0039 40.173 13.3666C40.0237 14.3266 39.8957 15.0946 39.789 15.6706C39.6824 16.2253 39.597 16.7373 39.533 17.2066C39.4904 17.6546 39.469 18.2093 39.469 18.8706C39.469 19.1906 39.4904 19.5746 39.533 20.0226C39.597 20.4706 39.7037 20.9079 39.853 21.3346C40.0024 21.7613 40.2264 22.1239 40.525 22.4226C40.8237 22.6999 41.2184 22.8386 41.709 22.8386C42.221 22.8386 42.701 22.6573 43.149 22.2946C43.6184 21.9106 43.949 21.6013 44.141 21.3666C45.5917 19.5319 46.8824 17.7399 48.013 15.9906C49.1437 14.2413 50.2637 12.3319 51.373 10.2626C51.5224 10.0279 51.6397 9.87859 51.725 9.81459C51.8317 9.75059 51.9597 9.71859 52.109 9.71859C52.5997 9.71859 52.941 9.80393 53.133 9.97459C53.325 10.1453 53.421 10.4333 53.421 10.8386C53.421 11.0946 53.389 11.4039 53.325 11.7666C53.005 13.3666 52.845 14.9559 52.845 16.5346C52.845 17.6013 52.941 18.5933 53.133 19.5106C53.325 20.4279 53.6344 21.1853 54.061 21.7826C54.381 22.1879 54.541 22.5399 54.541 22.8386C54.541 23.2013 54.4344 23.4893 54.221 23.7026C54.029 23.9159 53.7837 24.0226 53.485 24.0226C52.6744 24.0226 52.0344 23.3826 51.565 22.1026C51.4157 21.6546 51.245 21.0893 51.053 20.4066C50.8824 19.7026 50.7224 18.9986 50.573 18.2946C50.4237 17.5906 50.3277 17.0039 50.285 16.5346C50.0077 16.9826 49.7517 17.4306 49.517 17.8786C49.3037 18.3053 49.0264 18.7639 48.685 19.2546C48.4504 19.5959 48.173 19.9906 47.853 20.4386C47.533 20.8653 47.1917 21.3133 46.829 21.7826C46.0824 22.6999 45.261 23.5106 44.365 24.2146C43.469 24.8973 42.5304 25.2386 41.549 25.2386ZM59.8633 24.9186C59.5433 24.9186 59.3086 24.8439 59.1593 24.6946C59.01 24.5453 58.9033 24.3319 58.8393 24.0546C58.7326 23.6919 58.6793 23.3079 58.6793 22.9026V21.6546C58.6793 20.9719 58.7006 20.3853 58.7433 19.8946C58.786 19.3826 58.8073 18.8279 58.8073 18.2306C58.8073 18.0173 58.7966 17.7933 58.7753 17.5586C58.7753 17.3026 58.7646 17.0359 58.7433 16.7586C58.658 15.7133 58.5406 14.6146 58.3913 13.4626C58.242 12.3106 58.1673 11.2653 58.1673 10.3266V9.07859C58.2953 8.77993 58.4126 8.59859 58.5193 8.53459C58.6473 8.47059 58.818 8.43859 59.0313 8.43859C59.5433 8.43859 59.906 8.64126 60.1193 9.04659C60.3326 9.43059 60.4713 9.88926 60.5353 10.4226C60.6206 10.9346 60.674 11.3826 60.6953 11.7666C60.7166 11.9159 60.7486 12.2359 60.7913 12.7266C60.8553 13.2173 60.9193 13.7719 60.9833 14.3906C61.0473 14.9879 61.1006 15.5639 61.1433 16.1186C61.2073 16.6733 61.2393 17.0999 61.2393 17.3986C61.5806 16.6946 61.986 15.9693 62.4553 15.2226C62.9246 14.4546 63.394 13.7399 63.8633 13.0786C64.354 12.4173 64.7913 11.8839 65.1753 11.4786C65.73 10.8599 66.3806 10.3799 67.1273 10.0386C67.8953 9.67593 68.6526 9.49459 69.3993 9.49459C70.274 9.49459 71.042 9.73993 71.7033 10.2306C72.3646 10.7213 72.93 11.3613 73.3993 12.1506C73.89 12.9399 74.2953 13.7933 74.6153 14.7106C74.9353 15.6066 75.1913 16.4813 75.3833 17.3346C75.6606 18.4653 75.8633 19.4573 75.9913 20.3106C76.1406 21.1639 76.2686 22.1346 76.3753 23.2226C76.3753 23.6919 76.2793 24.0653 76.0873 24.3426C75.8953 24.6199 75.6606 24.7586 75.3833 24.7586C74.978 24.7586 74.69 24.6733 74.5193 24.5026C74.3486 24.3106 74.2313 24.0119 74.1673 23.6066C74.018 22.7959 73.8686 21.8786 73.7193 20.8546C73.5913 19.8306 73.41 18.7959 73.1753 17.7506C72.9406 16.6839 72.5993 15.7133 72.1513 14.8386C71.9806 14.4333 71.7673 14.0173 71.5113 13.5906C71.2553 13.1639 70.946 12.8013 70.5833 12.5026C70.2206 12.2039 69.7726 12.0546 69.2393 12.0546C68.5353 12.0546 67.8206 12.3639 67.0953 12.9826C66.3913 13.6013 65.7193 14.4013 65.0793 15.3826C64.4393 16.3639 63.8526 17.4199 63.3193 18.5506C62.786 19.6599 62.338 20.7159 61.9753 21.7186C61.8686 22.0599 61.73 22.4439 61.5593 22.8706C61.41 23.2759 61.25 23.6599 61.0793 24.0226C60.93 24.3213 60.7593 24.5453 60.5673 24.6946C60.3966 24.8439 60.162 24.9186 59.8633 24.9186ZM83.3458 26.0386C81.8525 25.6546 80.7218 24.8653 79.9538 23.6706C79.1858 22.4759 78.8018 21.1533 78.8018 19.7026C78.8018 18.3373 79.1005 17.0253 79.6978 15.7666C80.3165 14.4866 81.1378 13.3453 82.1618 12.3426C83.1858 11.3186 84.3485 10.5186 85.6498 9.94259C86.9725 9.34526 88.3378 9.04659 89.7458 9.04659C90.5778 9.04659 91.2285 9.06793 91.6978 9.11059C92.1671 9.15326 92.7005 9.29193 93.2978 9.52659C93.3191 9.20659 93.3725 8.75859 93.4578 8.18259C93.5431 7.60659 93.6391 6.99859 93.7458 6.35859C93.8525 5.69726 93.9378 5.11059 94.0018 4.59859C94.0658 4.12926 94.1298 3.65993 94.1938 3.19059C94.2791 2.69993 94.3965 2.23059 94.5458 1.78259C94.8871 0.843925 95.3778 0.374592 96.0178 0.374592C96.5085 0.374592 96.7538 0.747925 96.7538 1.49459C96.7538 1.60126 96.7431 1.72926 96.7218 1.87859C96.7218 2.00659 96.7111 2.15593 96.6898 2.32659C96.3485 4.90793 96.0925 7.46793 95.9218 10.0066C95.7725 12.5239 95.6978 15.0413 95.6978 17.5586C95.6978 18.6253 95.7298 19.6813 95.7938 20.7266C95.8578 21.7506 95.9325 22.8066 96.0178 23.8946C96.0605 24.4706 95.9538 24.9293 95.6978 25.2706C95.4631 25.5906 95.1965 25.7506 94.8978 25.7506C94.4711 25.7506 94.1831 25.4839 94.0338 24.9506C93.8205 24.2679 93.6498 23.5639 93.5218 22.8386C93.3938 22.0919 93.3085 21.4733 93.2658 20.9826C92.4765 21.8573 91.6231 22.6786 90.7058 23.4466C89.7885 24.2146 88.8285 24.8439 87.8258 25.3346C86.8445 25.8039 85.8311 26.0386 84.7858 26.0386H83.3458ZM84.5938 24.0546C85.6178 24.0546 86.6311 23.7986 87.6338 23.2866C88.6578 22.7533 89.5965 22.0706 90.4498 21.2386C91.3031 20.3853 91.9858 19.4786 92.4978 18.5186C93.0098 17.5373 93.2658 16.5986 93.2658 15.7026C93.2658 14.8919 93.1378 14.1453 92.8818 13.4626C92.6471 12.7799 92.2951 12.2359 91.8258 11.8306C91.3778 11.4039 90.8338 11.1906 90.1938 11.1906C88.9991 11.1906 87.8578 11.4253 86.7698 11.8946C85.7031 12.3639 84.7431 13.0039 83.8898 13.8146C83.0578 14.6253 82.3965 15.5533 81.9058 16.5986C81.4365 17.6439 81.2018 18.7319 81.2018 19.8626V21.3026C81.4151 22.1133 81.7991 22.7746 82.3538 23.2866C82.9085 23.7986 83.6551 24.0546 84.5938 24.0546ZM101.407 25.8786C101.172 25.8786 100.991 25.7719 100.863 25.5586C100.756 25.3453 100.682 25.0999 100.639 24.8226C100.596 24.5453 100.554 24.3106 100.511 24.1186V21.5906C100.511 20.3106 100.564 18.9986 100.671 17.6546C100.799 16.3106 100.863 14.9986 100.863 13.7186C100.863 13.0999 100.82 12.4813 100.735 11.8626C100.671 11.2439 100.596 10.7213 100.511 10.2946C100.49 10.1879 100.468 10.0919 100.447 10.0066C100.447 9.92126 100.447 9.83593 100.447 9.75059C100.447 9.47326 100.532 9.29193 100.703 9.20659C100.874 9.12126 101.162 9.07859 101.567 9.07859C102.058 9.07859 102.42 9.29193 102.655 9.71859C102.89 10.1453 103.06 10.6466 103.167 11.2226C103.295 11.7773 103.412 12.2786 103.519 12.7266C104.138 11.9799 104.81 11.4359 105.535 11.0946C106.26 10.7533 106.868 10.4546 107.359 10.1986C107.828 9.96393 108.298 9.78259 108.767 9.65459C109.258 9.50526 109.802 9.43059 110.399 9.43059C110.996 9.43059 111.551 9.60126 112.063 9.94259C112.596 10.2626 112.863 10.6146 112.863 10.9986C112.863 11.4466 112.724 11.7773 112.447 11.9906C112.17 12.2039 111.85 12.3106 111.487 12.3106C111.38 12.3106 111.274 12.2999 111.167 12.2786C111.082 12.2359 110.986 12.2039 110.879 12.1826C110.73 12.1186 110.559 12.0653 110.367 12.0226C110.196 11.9799 110.026 11.9586 109.855 11.9586C109.194 11.9586 108.554 12.0866 107.935 12.3426C107.316 12.5773 106.794 12.8119 106.367 13.0466C105.62 13.4519 105.034 13.9106 104.607 14.4226C104.202 14.9133 103.86 15.3719 103.583 15.7986C103.434 16.6093 103.338 17.3986 103.295 18.1666C103.252 18.9346 103.22 19.5319 103.199 19.9586C103.178 20.4066 103.156 20.8759 103.135 21.3666C103.114 21.8573 103.082 22.3479 103.039 22.8386C102.996 23.3506 102.932 23.8413 102.847 24.3106C102.762 24.7799 102.612 25.1639 102.399 25.4626C102.186 25.7399 101.855 25.8786 101.407 25.8786ZM117.832 33.9426C117.768 33.9426 117.672 33.8573 117.544 33.6866C117.416 33.5159 117.352 33.2599 117.352 32.9186C117.352 32.6199 117.384 32.3213 117.448 32.0226C117.533 31.7239 117.64 31.4253 117.768 31.1266C117.917 30.8066 118.066 30.4866 118.216 30.1666C118.365 29.8466 118.514 29.5266 118.664 29.2066C118.792 28.8866 118.941 28.4813 119.112 27.9906C119.304 27.4999 119.485 26.9986 119.656 26.4866C119.826 25.9959 119.965 25.5693 120.072 25.2066C120.2 24.8439 120.264 24.6413 120.264 24.5986V23.7666C118.941 23.7666 117.842 23.5213 116.968 23.0306C116.093 22.5399 115.4 21.8893 114.888 21.0786C114.376 20.2679 114.002 19.3719 113.768 18.3906C113.533 17.3879 113.373 16.3746 113.288 15.3506C113.224 14.3053 113.192 13.3346 113.192 12.4386C113.192 12.0119 113.202 11.5959 113.224 11.1906C113.245 10.7853 113.298 10.3799 113.384 9.97459C113.49 9.48393 113.618 9.16393 113.768 9.01459C113.938 8.84393 114.098 8.75859 114.248 8.75859C114.738 8.75859 115.08 8.95059 115.272 9.33459C115.485 9.69726 115.592 10.2306 115.592 10.9346C115.592 11.4253 115.56 11.8946 115.496 12.3426C115.432 12.7693 115.4 13.2386 115.4 13.7506V14.0706C115.4 14.2626 115.432 14.6359 115.496 15.1906C115.581 15.7239 115.666 16.2679 115.752 16.8226C115.837 17.3773 115.901 17.7933 115.944 18.0706C116.05 18.5399 116.21 19.0413 116.424 19.5746C116.637 20.0866 116.936 20.5239 117.32 20.8866C117.725 21.2493 118.237 21.4306 118.856 21.4306C119.688 21.4306 120.424 21.1319 121.064 20.5346C121.725 19.9159 122.322 19.1266 122.856 18.1666C123.41 17.1853 123.912 16.1613 124.36 15.0946C124.53 14.7319 124.69 14.3693 124.84 14.0066C124.989 13.6439 125.138 13.2919 125.288 12.9506C125.458 12.6093 125.618 12.2893 125.768 11.9906C125.917 11.6919 126.077 11.4039 126.248 11.1266C126.589 10.5719 126.898 10.1773 127.176 9.94259C127.474 9.70793 127.762 9.59059 128.04 9.59059C128.317 9.59059 128.52 9.66526 128.648 9.81459C128.797 9.96393 128.872 10.2199 128.872 10.5826C128.872 11.2439 128.754 11.8946 128.52 12.5346C128.306 13.1746 128.029 13.8146 127.688 14.4546C127.325 15.1159 126.941 15.7666 126.536 16.4066C126.13 17.0466 125.778 17.6866 125.48 18.3266C125.309 18.7106 125.074 19.2333 124.776 19.8946C124.498 20.5346 124.2 21.2066 123.88 21.9106C123.581 22.5933 123.314 23.2013 123.08 23.7346C122.866 24.2679 122.738 24.5986 122.696 24.7266C122.674 24.8333 122.589 25.0786 122.44 25.4626C122.29 25.8253 122.12 26.2626 121.928 26.7746C121.757 27.2866 121.576 27.7986 121.384 28.3106C121.192 28.8439 121.021 29.2919 120.872 29.6546C120.744 30.0386 120.658 30.2839 120.616 30.3906C120.488 30.7746 120.306 31.2439 120.072 31.7986C119.837 32.3533 119.538 32.8439 119.176 33.2706C118.834 33.7186 118.386 33.9426 117.832 33.9426Z" fill="white"/>
</svg>
