<svg width="19" height="28" viewBox="0 0 19 28" fill="none" xmlns="http://www.w3.org/2000/svg">
<path d="M9.05626 25.5408C9.11943 25.6503 9.21914 25.734 9.33799 25.7773C9.45675 25.8206 9.5871 25.8206 9.70587 25.7773C9.82472 25.734 9.92443 25.6503 9.98759 25.5408C11.143 23.538 12.4103 21.6978 13.6365 19.9179C16.2951 16.0588 18.5911 12.7264 18.5911 9.34933V9.34924C18.5911 6.94404 17.6356 4.63731 15.9348 2.93654C14.234 1.23577 11.9273 0.280273 9.52209 0.280273C7.11689 0.280273 4.81016 1.23575 3.10939 2.93654C1.40863 4.63733 0.453125 6.94404 0.453125 9.34924C0.453125 12.726 2.74908 16.059 5.40773 19.9178C6.63382 21.6978 7.90113 23.5382 9.05659 25.5409L9.05626 25.5408ZM9.52193 4.4022C10.5004 4.4022 11.4569 4.69232 12.2704 5.23599C13.0839 5.77959 13.718 6.55222 14.0925 7.4562C14.4669 8.36018 14.5649 9.35495 14.3739 10.3145C14.1831 11.2741 13.7118 12.1557 13.0199 12.8474C12.3281 13.5393 11.4465 14.0104 10.4869 14.2012C9.5272 14.3921 8.53253 14.2941 7.62855 13.9196C6.72457 13.5452 5.95193 12.911 5.40833 12.0974C4.86483 11.2839 4.5747 10.3273 4.57479 9.34875C4.57598 8.03707 5.0976 6.77951 6.0251 5.85201C6.95269 4.92451 8.21022 4.40297 9.52184 4.4018L9.52193 4.4022ZM17.6107 24.9913C17.6107 26.8458 13.4177 27.6905 9.52193 27.6905C5.6262 27.6905 1.4332 26.8458 1.4332 24.9913C1.4332 23.4838 4.15829 22.8261 5.78253 22.5686C5.92599 22.54 6.07492 22.5711 6.19497 22.6546C6.31501 22.7381 6.39576 22.867 6.41873 23.0115C6.4417 23.1559 6.40479 23.3035 6.31656 23.4202C6.22833 23.5368 6.09635 23.6125 5.95116 23.6297C3.37492 24.0388 2.50716 24.7361 2.50716 24.9913C2.50716 25.1184 2.84194 25.5773 4.32926 26.0031C6.02531 26.4369 7.77162 26.6428 9.52186 26.6156C11.2719 26.6428 13.0179 26.4368 14.7135 26.0031C16.2007 25.5772 16.5356 25.1189 16.5356 24.9913C16.5356 24.7361 15.6688 24.0388 13.0926 23.6303C12.9092 23.5936 12.758 23.4644 12.6933 23.2888C12.6287 23.1134 12.6599 22.9169 12.7757 22.77C12.8916 22.6233 13.0754 22.5472 13.2612 22.5692C14.8861 22.8274 17.6105 23.4838 17.6105 24.9912L17.6107 24.9913Z" fill="#723CE8"/>
</svg>
