<svg width="142" height="25" viewBox="0 0 142 25" fill="none" xmlns="http://www.w3.org/2000/svg">
<path d="M33.1293 17.0947V7.40528H34.9287V15.5721H39.9949V17.0947H33.1293ZM45.817 17.0947V15.5998L45.7201 15.2814V12.6653C45.7201 12.1577 45.5679 11.7655 45.2634 11.4887C44.9588 11.2026 44.4974 11.0596 43.8792 11.0596C43.4639 11.0596 43.0532 11.1242 42.6472 11.2534C42.2504 11.3826 41.9136 11.5625 41.6367 11.7932L40.9585 10.5336C41.3553 10.2291 41.8259 10.003 42.3704 9.85533C42.9241 9.69845 43.4962 9.62001 44.0868 9.62001C45.1572 9.62001 45.9831 9.8784 46.5645 10.3952C47.1551 10.9027 47.4504 11.6917 47.4504 12.7622V17.0947H45.817ZM43.4916 17.1916C42.9379 17.1916 42.4534 17.0993 42.0382 16.9148C41.6229 16.721 41.2999 16.458 41.0692 16.1258C40.8477 15.7843 40.737 15.4014 40.737 14.9769C40.737 14.5616 40.8339 14.1879 41.0277 13.8557C41.2307 13.5235 41.5583 13.2605 42.0105 13.0667C42.4626 12.8729 43.0625 12.776 43.8099 12.776H45.9555V13.9249H43.9345C43.3439 13.9249 42.9471 14.0218 42.7441 14.2156C42.5411 14.4001 42.4396 14.6308 42.4396 14.9077C42.4396 15.2214 42.5642 15.4706 42.8133 15.6552C43.0625 15.8397 43.4085 15.932 43.8515 15.932C44.276 15.932 44.6543 15.8351 44.9865 15.6413C45.328 15.4475 45.5725 15.1615 45.7201 14.7831L46.0108 15.8213C45.8447 16.255 45.5448 16.5918 45.1111 16.8317C44.6866 17.0717 44.1468 17.1916 43.4916 17.1916ZM52.7993 17.1916C52.1718 17.1916 51.6181 17.0763 51.1382 16.8456C50.6584 16.6056 50.2846 16.2457 50.017 15.7659C49.7494 15.2768 49.6156 14.6631 49.6156 13.9249V9.70307H51.3459V13.6896C51.3459 14.354 51.4935 14.8523 51.7888 15.1845C52.0933 15.5075 52.5224 15.669 53.0761 15.669C53.4822 15.669 53.8328 15.5859 54.1281 15.4198C54.4326 15.2537 54.668 15.0046 54.8341 14.6724C55.0094 14.3402 55.0971 13.9295 55.0971 13.4404V9.70307H56.8273V17.0947H55.1801V15.1015L55.4708 15.7105C55.2216 16.1904 54.8571 16.5595 54.3773 16.8179C53.8974 17.067 53.3714 17.1916 52.7993 17.1916ZM63.2869 9.62001C63.8775 9.62001 64.4035 9.73536 64.8649 9.96606C65.3355 10.1968 65.7047 10.552 65.9723 11.0319C66.2399 11.5025 66.3737 12.1116 66.3737 12.8591V17.0947H64.6434V13.0805C64.6434 12.4253 64.4866 11.9363 64.1728 11.6133C63.8683 11.2903 63.4392 11.1288 62.8855 11.1288C62.4795 11.1288 62.1196 11.2119 61.8058 11.378C61.4921 11.5441 61.2475 11.7932 61.0722 12.1254C60.9061 12.4484 60.823 12.8591 60.823 13.3574V17.0947H59.0928V9.70307H60.74V11.6963L60.4493 11.0873C60.7077 10.6166 61.0814 10.2567 61.5705 10.0076C62.0688 9.74921 62.6409 9.62001 63.2869 9.62001ZM71.7105 17.1916C70.9999 17.1916 70.3585 17.0347 69.7864 16.721C69.2235 16.398 68.7806 15.9551 68.4576 15.3922C68.1346 14.8292 67.9731 14.1648 67.9731 13.3989C67.9731 12.633 68.1346 11.9685 68.4576 11.4056C68.7806 10.8427 69.2235 10.4044 69.7864 10.0906C70.3585 9.77689 70.9999 9.62001 71.7105 9.62001C72.3287 9.62001 72.8824 9.75843 73.3715 10.0353C73.8606 10.3029 74.2482 10.7135 74.5342 11.2672C74.8203 11.8209 74.9633 12.5315 74.9633 13.3989C74.9633 14.2571 74.8249 14.9677 74.5481 15.5306C74.2712 16.0843 73.8883 16.4995 73.3992 16.7764C72.9101 17.0532 72.3472 17.1916 71.7105 17.1916ZM71.9181 15.7105C72.3333 15.7105 72.7025 15.6182 73.0255 15.4337C73.3577 15.2491 73.6207 14.9815 73.8144 14.6308C74.0175 14.2802 74.119 13.8695 74.119 13.3989C74.119 12.919 74.0175 12.5084 73.8144 12.167C73.6207 11.8163 73.3577 11.5487 73.0255 11.3641C72.7025 11.1796 72.3333 11.0873 71.9181 11.0873C71.5028 11.0873 71.1291 11.1796 70.7969 11.3641C70.4739 11.5487 70.2109 11.8163 70.0079 12.167C69.8141 12.5084 69.7172 12.919 69.7172 13.3989C69.7172 13.8695 69.8141 14.2802 70.0079 14.6308C70.2109 14.9815 70.4739 15.2491 70.7969 15.4337C71.1291 15.6182 71.5028 15.7105 71.9181 15.7105ZM74.1605 17.0947V15.3506L74.2297 13.3851L74.0913 11.4195V6.82392H75.8077V17.0947H74.1605ZM78.085 17.0947V9.70307H79.7323V11.7378L79.5385 11.1426C79.7599 10.6443 80.106 10.266 80.5766 10.0076C81.0565 9.74921 81.6517 9.62001 82.3622 9.62001V11.2672C82.2884 11.2488 82.2192 11.2395 82.1546 11.2395C82.09 11.2303 82.0254 11.2257 81.9608 11.2257C81.3056 11.2257 80.7843 11.4195 80.3967 11.8071C80.0091 12.1854 79.8153 12.7529 79.8153 13.5096V17.0947H78.085ZM84.7094 19.877C84.3496 19.877 83.9897 19.817 83.6298 19.697C83.2699 19.5771 82.97 19.411 82.73 19.1987L83.4221 17.9253C83.5975 18.0821 83.7959 18.2067 84.0173 18.299C84.2388 18.3913 84.4649 18.4374 84.6956 18.4374C85.0094 18.4374 85.2631 18.359 85.4569 18.2021C85.6507 18.0452 85.8307 17.7822 85.9968 17.4131L86.4259 16.4441L86.5643 16.2365L89.3604 9.70307H91.0214L87.5609 17.6899C87.3302 18.2436 87.0718 18.6819 86.7858 19.0049C86.5089 19.3279 86.1952 19.554 85.8445 19.6832C85.5031 19.8124 85.1247 19.877 84.7094 19.877ZM86.2321 17.3577L82.8961 9.70307H84.6956L87.4086 16.0843L86.2321 17.3577ZM96.7416 17.2331C95.9849 17.2331 95.2881 17.1086 94.6514 16.8594C94.0147 16.6103 93.461 16.2642 92.9904 15.8213C92.5197 15.3691 92.1552 14.8431 91.8968 14.2433C91.6384 13.6342 91.5093 12.9698 91.5093 12.25C91.5093 11.5302 91.6384 10.8704 91.8968 10.2706C92.1552 9.66154 92.5197 9.13554 92.9904 8.69259C93.461 8.24042 94.0147 7.88976 94.6514 7.6406C95.2881 7.39144 95.9802 7.26686 96.7277 7.26686C97.4844 7.26686 98.1765 7.39144 98.804 7.6406C99.4408 7.88976 99.9944 8.24042 100.465 8.69259C100.936 9.13554 101.3 9.66154 101.559 10.2706C101.817 10.8704 101.946 11.5302 101.946 12.25C101.946 12.9698 101.817 13.6342 101.559 14.2433C101.3 14.8523 100.936 15.3783 100.465 15.8213C99.9944 16.2642 99.4408 16.6103 98.804 16.8594C98.1765 17.1086 97.489 17.2331 96.7416 17.2331ZM96.7277 15.6552C97.2168 15.6552 97.669 15.5721 98.0842 15.406C98.4995 15.2399 98.8594 15.0046 99.1639 14.7C99.4684 14.3863 99.7038 14.0264 99.8699 13.6204C100.045 13.2051 100.133 12.7483 100.133 12.25C100.133 11.7517 100.045 11.2995 99.8699 10.8935C99.7038 10.4782 99.4684 10.1183 99.1639 9.8138C98.8594 9.50005 98.4995 9.26012 98.0842 9.09402C97.669 8.92791 97.2168 8.84486 96.7277 8.84486C96.2386 8.84486 95.7865 8.92791 95.3712 9.09402C94.9652 9.26012 94.6053 9.50005 94.2915 9.8138C93.987 10.1183 93.7471 10.4782 93.5717 10.8935C93.4056 11.2995 93.3226 11.7517 93.3226 12.25C93.3226 12.7391 93.4056 13.1913 93.5717 13.6065C93.7471 14.0218 93.987 14.3863 94.2915 14.7C94.596 15.0046 94.9559 15.2399 95.3712 15.406C95.7865 15.5721 96.2386 15.6552 96.7277 15.6552ZM107.882 9.62001C108.472 9.62001 108.998 9.73536 109.46 9.96606C109.93 10.1968 110.299 10.552 110.567 11.0319C110.835 11.5025 110.968 12.1116 110.968 12.8591V17.0947H109.238V13.0805C109.238 12.4253 109.081 11.9363 108.767 11.6133C108.463 11.2903 108.034 11.1288 107.48 11.1288C107.074 11.1288 106.714 11.2119 106.4 11.378C106.087 11.5441 105.842 11.7932 105.667 12.1254C105.501 12.4484 105.418 12.8591 105.418 13.3574V17.0947H103.687V9.70307H105.335V11.6963L105.044 11.0873C105.302 10.6166 105.676 10.2567 106.165 10.0076C106.663 9.74921 107.236 9.62001 107.882 9.62001ZM111.959 17.0947L116.319 7.40528H118.091L122.465 17.0947H120.583L116.831 8.36039H117.551L113.814 17.0947H111.959ZM113.966 14.8523L114.451 13.4404H119.683L120.167 14.8523H113.966ZM127.629 17.1916C127.029 17.1916 126.48 17.0532 125.981 16.7764C125.492 16.4995 125.1 16.0843 124.805 15.5306C124.519 14.9677 124.376 14.2571 124.376 13.3989C124.376 12.5315 124.514 11.8209 124.791 11.2672C125.077 10.7135 125.465 10.3029 125.954 10.0353C126.443 9.75843 127.001 9.62001 127.629 9.62001C128.358 9.62001 128.999 9.77689 129.553 10.0906C130.116 10.4044 130.559 10.8427 130.881 11.4056C131.214 11.9685 131.38 12.633 131.38 13.3989C131.38 14.1648 131.214 14.8339 130.881 15.406C130.559 15.9689 130.116 16.4072 129.553 16.721C128.999 17.0347 128.358 17.1916 127.629 17.1916ZM123.531 19.7801V9.70307H125.179V11.4472L125.123 13.4127L125.262 15.3783V19.7801H123.531ZM127.435 15.7105C127.85 15.7105 128.219 15.6182 128.542 15.4337C128.874 15.2491 129.137 14.9815 129.331 14.6308C129.525 14.2802 129.622 13.8695 129.622 13.3989C129.622 12.919 129.525 12.5084 129.331 12.167C129.137 11.8163 128.874 11.5487 128.542 11.3641C128.219 11.1796 127.85 11.0873 127.435 11.0873C127.02 11.0873 126.646 11.1796 126.314 11.3641C125.981 11.5487 125.718 11.8163 125.525 12.167C125.331 12.5084 125.234 12.919 125.234 13.3989C125.234 13.8695 125.331 14.2802 125.525 14.6308C125.718 14.9815 125.981 15.2491 126.314 15.4337C126.646 15.6182 127.02 15.7105 127.435 15.7105ZM137.118 17.1916C136.518 17.1916 135.969 17.0532 135.471 16.7764C134.982 16.4995 134.589 16.0843 134.294 15.5306C134.008 14.9677 133.865 14.2571 133.865 13.3989C133.865 12.5315 134.004 11.8209 134.28 11.2672C134.566 10.7135 134.954 10.3029 135.443 10.0353C135.932 9.75843 136.49 9.62001 137.118 9.62001C137.847 9.62001 138.488 9.77689 139.042 10.0906C139.605 10.4044 140.048 10.8427 140.371 11.4056C140.703 11.9685 140.869 12.633 140.869 13.3989C140.869 14.1648 140.703 14.8339 140.371 15.406C140.048 15.9689 139.605 16.4072 139.042 16.721C138.488 17.0347 137.847 17.1916 137.118 17.1916ZM133.021 19.7801V9.70307H134.668V11.4472L134.613 13.4127L134.751 15.3783V19.7801H133.021ZM136.924 15.7105C137.339 15.7105 137.709 15.6182 138.032 15.4337C138.364 15.2491 138.627 14.9815 138.821 14.6308C139.014 14.2802 139.111 13.8695 139.111 13.3989C139.111 12.919 139.014 12.5084 138.821 12.167C138.627 11.8163 138.364 11.5487 138.032 11.3641C137.709 11.1796 137.339 11.0873 136.924 11.0873C136.509 11.0873 136.135 11.1796 135.803 11.3641C135.471 11.5487 135.208 11.8163 135.014 12.167C134.82 12.5084 134.723 12.919 134.723 13.3989C134.723 13.8695 134.82 14.2802 135.014 14.6308C135.208 14.9815 135.471 15.2491 135.803 15.4337C136.135 15.6182 136.509 15.7105 136.924 15.7105Z" fill="black"/>
<g clip-path="url(#clip0_1230_5122)">
<path d="M13.1123 4.13236C13.1123 4.13236 13.3052 4.11604 13.3448 4.15436C13.3597 4.16926 13.378 4.17707 13.3985 4.1792L13.7392 4.20971C13.501 4.23668 13.2925 4.21113 13.1123 4.13236Z" fill="#D1E4FA"/>
<path d="M13.249 4.13236C13.249 4.13236 13.442 4.11604 13.4815 4.15436C13.4964 4.16926 13.5147 4.17707 13.5352 4.1792L13.8759 4.20971C13.6377 4.23668 13.4292 4.21113 13.249 4.13236Z" fill="#D1E4FA"/>
<path d="M15.5981 1.39168L14.8173 4.48128C14.4335 4.35021 14.0491 4.25683 13.664 4.20117L13.3875 4.16218C13.3604 4.15798 13.3269 4.15465 13.3269 4.15465C13.2505 4.146 13.2506 4.14628 13.1353 4.13593C8.7098 3.73851 4.85645 6.67848 3.82949 10.9556C3.66319 11.6457 3.58869 12.4345 3.60597 13.3215L0.500049 13.288C0.480379 13.288 0.461306 13.294 0.445214 13.3048C0.421372 13.3209 0.394551 13.3293 0.365345 13.3299C0.346272 12.568 0.395147 11.8073 0.511373 11.0489C0.97449 8.15565 2.28338 5.74478 4.43684 3.81692C7.51356 1.11815 11.6614 0.193427 15.5856 1.3438C15.6041 1.34918 15.6083 1.36535 15.5981 1.39168Z" fill="#70AAF2"/>
<path d="M20.8677 4.61242C22.1027 5.95551 24.0823 8.86919 24.0823 13.0804C24.0823 13.0804 20.7965 13.0479 20.7808 13.0479C20.7808 13.0479 19.3347 7.87918 18.6201 7.05381C18.604 7.03466 18.5795 7.01491 18.5468 6.99516L18.5503 6.97421C18.5539 6.95625 18.5497 6.94069 18.5372 6.92752C17.6897 6.00639 16.6979 5.28995 15.5612 4.77701C15.3383 4.67646 15.0629 4.58309 14.8174 4.48134L15.5982 1.39174C15.6292 1.37557 15.6548 1.37079 15.6751 1.37737C17.6879 2.00882 19.4188 3.08677 20.8677 4.61242Z" fill="#354A95"/>
<path d="M13.1353 4.13554C13.2873 4.20197 13.4631 4.22352 13.664 4.20078C14.049 4.25644 14.4335 4.34981 14.8173 4.48089C15.0629 4.58264 15.3383 4.67601 15.5612 4.77656C16.6978 5.2895 17.6896 6.00594 18.5372 6.92707C18.5497 6.94024 18.5539 6.9558 18.5503 6.97376L18.5467 6.99471C17.3457 7.63693 16.106 8.60654 15.3997 9.75033C14.9038 10.5542 14.7822 11.2395 14.598 12.0732C14.5032 12.503 14.421 12.7986 14.3506 12.9608C13.9781 13.8197 13.1872 14.3536 12.2335 14.3386C9.26767 14.2938 7.00394 15.2795 5.02273 17.4678C5.00306 17.4552 4.98935 17.4426 4.98041 17.4294C4.12927 16.1707 3.72576 14.8558 3.60596 13.3211C3.58867 12.4341 3.66318 11.6453 3.82947 10.9552C4.85643 6.67809 8.70978 3.73811 13.1353 4.13554Z" fill="#D1E4FA"/>
<path d="M18.547 6.99512C18.5798 7.01487 18.6042 7.03462 18.6203 7.05377C19.3349 7.87914 19.8833 8.80567 20.2665 9.83334C20.6414 10.8574 20.8256 11.9246 20.8191 13.0349C20.6802 15.6008 19.6461 17.7094 17.7167 19.3619C13.6428 22.5569 7.99423 21.7387 5.02479 17.5005C5.02181 17.4957 5.02003 17.4903 5.02062 17.4849C5.02122 17.4777 5.02241 17.4724 5.02301 17.4682C7.00422 15.2799 9.26795 14.2942 12.2338 14.3391C13.1875 14.354 13.9784 13.8201 14.3509 12.9612C14.4212 12.799 14.5035 12.5034 14.5983 12.0736C14.7824 11.2399 14.904 10.5546 15.3999 9.75074C16.1062 8.60695 17.346 7.63734 18.547 6.99512ZM10.7437 16.3842C9.9659 16.3346 9.86458 17.44 10.5303 17.6028C14.5738 18.594 18.2722 15.6851 18.2734 11.526C18.2734 10.7102 17.0712 10.5977 17.0176 11.5487C16.9818 12.1754 16.9282 12.7194 16.7327 13.2569C15.9525 15.4032 13.9301 16.6931 11.6592 16.5249C11.3708 16.5033 11.0072 16.401 10.7437 16.3842Z" fill="#86D3FF"/>
<path d="M10.5299 17.6025C9.86417 17.4397 9.9655 16.3342 10.7433 16.3839C11.0068 16.4007 11.3703 16.503 11.6588 16.5246C13.9297 16.6927 15.952 15.4029 16.7323 13.2566C16.9278 12.7191 16.9814 12.1751 17.0172 11.5484C17.0708 10.5973 18.273 10.7099 18.273 11.5256C18.2718 15.6848 14.5734 18.5937 10.5299 17.6025Z" fill="white"/>
<path d="M20.8191 13.0352H24.0645C24.0771 13.0555 24.0824 13.0788 24.0806 13.1052C23.9441 15.8351 23.0209 18.2435 21.3103 20.33C20.9473 20.749 20.5652 21.147 20.1641 21.5241L17.8521 19.367C17.8372 19.3532 17.8199 19.3478 17.8002 19.3508L17.7168 19.3622C19.6462 17.7097 20.6803 15.601 20.8191 13.0352Z" fill="#70AAF2"/>
<path d="M3.60586 13.3216C3.72567 14.8562 4.12918 16.1712 4.98031 17.4299C4.98925 17.4431 5.00296 17.4556 5.02263 17.4682C5.02204 17.4724 5.02084 17.4778 5.02025 17.485C5.02025 17.4904 5.02144 17.4957 5.02442 17.5005C7.99385 21.7387 13.6425 22.5569 17.7163 19.362L17.7998 19.3506C17.8195 19.3476 17.8367 19.353 17.8516 19.3667L20.1636 21.5238C19.9723 21.7124 19.7333 21.9153 19.446 22.1325C14.5097 25.8662 7.66902 25.2928 3.43599 20.7535C1.55194 18.6635 0.528547 16.1892 0.365234 13.33C0.39444 13.33 0.421261 13.321 0.445103 13.3048C0.461196 13.2941 0.480269 13.2881 0.499938 13.2881L3.60586 13.3216Z" fill="#354A95"/>
</g>
<defs>
<clipPath id="clip0_1230_5122">
<rect width="23.7292" height="23.7292" fill="white" transform="translate(0.361328 0.858887)"/>
</clipPath>
</defs>
</svg>
