<svg width="66" height="66" viewBox="0 0 66 66" fill="none" xmlns="http://www.w3.org/2000/svg">
<path d="M28.4147 36.9367V44.0404H17.0488C15.1648 44.0404 13.358 44.7888 12.0258 46.121C10.6936 47.4532 9.94514 49.26 9.94514 51.144V56.827H0V51.144C0 46.6224 1.79621 42.286 4.99348 39.0887C8.19075 35.8914 12.5272 34.0952 17.0488 34.0952H25.5732C26.3268 34.0952 27.0496 34.3946 27.5824 34.9275C28.1153 35.4603 28.4147 36.1831 28.4147 36.9367Z" fill="#6CBFEF"/>
<path d="M25.5733 34.0952H17.0488C13.8047 34.0969 10.6283 35.0242 7.89281 36.7682C5.15728 38.5122 2.97613 41.0005 1.60547 43.9409C7.60097 37.3629 14.1221 38.3574 22.7318 38.3574C23.4854 38.3574 24.2081 38.6568 24.741 39.1897C25.2739 39.7225 25.5733 40.4453 25.5733 41.1989V44.0404H28.4147V36.9367C28.4147 36.1831 28.1154 35.4603 27.5825 34.9275C27.0496 34.3946 26.3269 34.0952 25.5733 34.0952Z" fill="#014D7A"/>
<path d="M51.1468 42.6196L45.4638 56.8269H28.415V51.144H37.6356C38.3492 51.1466 39.0376 50.8806 39.564 50.3989C40.0905 49.9172 40.4164 49.2551 40.4771 48.5441C42.8213 18.7797 42.6224 21.6922 42.6224 21.3086L48.3053 22.7293C48.5895 24.7468 48.1206 21.5217 51.1468 42.6196Z" fill="#014D7A"/>
<path d="M51.1467 42.6196C46.4725 54.3122 46.4583 53.9855 46.6004 53.9855C46.2859 53.9844 45.9763 53.9065 45.6987 53.7586C45.4211 53.6108 45.1838 53.3974 45.0074 53.137C44.831 52.8766 44.7209 52.577 44.6865 52.2644C44.6521 51.9517 44.6946 51.6354 44.8103 51.3429L48.3053 42.6196C45.2791 21.5217 45.7479 24.7184 45.4638 22.7293C42.054 21.8769 42.5513 22.2747 42.6223 21.3086L48.3053 22.7293C48.5894 24.7468 48.1206 21.5217 51.1467 42.6196Z" fill="#BCDBEF"/>
<path d="M53.9876 12.784V21.3084C53.9876 21.6852 53.8379 22.0466 53.5715 22.313C53.3051 22.5795 52.9437 22.7292 52.5669 22.7292H45.4632C43.956 22.7292 42.5105 22.1304 41.4448 21.0647C40.379 19.9989 39.7803 18.5534 39.7803 17.0462C39.7803 15.539 40.379 14.0935 41.4448 13.0278C42.5105 11.962 43.956 11.3633 45.4632 11.3633H52.5669C52.9437 11.3633 53.3051 11.513 53.5715 11.7794C53.8379 12.0458 53.9876 12.4072 53.9876 12.784Z" fill="#014D7A"/>
<path d="M48.5039 24.15C45.6625 24.15 44.1565 24.3632 42.4658 23.2834C42.6931 20.6408 42.0822 22.7293 45.4636 22.7293H48.305L48.5039 24.15Z" fill="#6CBFEF"/>
<path d="M58.2505 17.0464C58.2505 18.1768 57.8014 19.2609 57.0021 20.0602C56.2028 20.8595 55.1187 21.3086 53.9883 21.3086V12.7842C55.1187 12.7842 56.2028 13.2332 57.0021 14.0325C57.8014 14.8319 58.2505 15.916 58.2505 17.0464Z" fill="#FFCC66"/>
<path d="M57.6246 19.2629C56.9571 19.6706 56.1903 19.8869 55.4082 19.888V13.04C56.004 13.2522 56.545 13.5942 56.9922 14.0413C57.4394 14.4885 57.7815 15.0295 57.9937 15.6253C58.2059 16.221 58.2828 16.8565 58.219 17.4857C58.1551 18.1148 57.9521 18.7219 57.6246 19.2629Z" fill="#FFDE76"/>
<path d="M42.6219 18.467H34.0975C33.7207 18.467 33.3593 18.3173 33.0929 18.0508C32.8264 17.7844 32.6768 17.423 32.6768 17.0462C32.6768 16.6694 32.8264 16.3081 33.0929 16.0416C33.3593 15.7752 33.7207 15.6255 34.0975 15.6255H42.6219C42.9987 15.6255 43.3601 15.7752 43.6265 16.0416C43.8929 16.3081 44.0426 16.6694 44.0426 17.0462C44.0426 17.423 43.8929 17.7844 43.6265 18.0508C43.3601 18.3173 42.9987 18.467 42.6219 18.467Z" fill="#374F68"/>
<path d="M65.3541 56.8269H45.4639C51.7009 41.1988 50.9479 42.6196 51.6156 42.6196C55.3018 42.7413 58.7962 44.2917 61.36 46.943C63.9238 49.5943 65.3562 53.1387 65.3541 56.8269Z" fill="#6CBFEF"/>
<path d="M65.0701 53.9855H46.6006L51.1469 42.6196C54.4222 42.619 57.597 43.7499 60.1342 45.8211C62.6714 47.8923 64.4151 50.7764 65.0701 53.9855Z" fill="#014D7A"/>
<path d="M22.7314 56.8271C22.7314 59.088 21.8333 61.2562 20.2347 62.8548C18.636 64.4534 16.4678 65.3516 14.207 65.3516C11.9462 65.3516 9.77799 64.4534 8.17936 62.8548C6.58072 61.2562 5.68262 59.088 5.68262 56.8271H22.7314Z" fill="#374F68"/>
<path d="M60.964 58.2476C59.4012 67.6812 45.7337 67.667 44.1709 58.2476H60.964Z" fill="#374F68"/>
<path d="M17.0491 56.8271C17.0491 57.5808 16.7498 58.3035 16.2169 58.8364C15.684 59.3693 14.9613 59.6686 14.2077 59.6686C13.4541 59.6686 12.7313 59.3693 12.1985 58.8364C11.6656 58.3035 11.3662 57.5808 11.3662 56.8271H17.0491Z" fill="#7C7D7D"/>
<path d="M55.0251 58.2476C54.7753 58.6782 54.4168 59.0356 53.9855 59.284C53.5541 59.5325 53.065 59.6633 52.5672 59.6633C52.0694 59.6633 51.5804 59.5325 51.149 59.284C50.7177 59.0356 50.3592 58.6782 50.1094 58.2476H55.0251Z" fill="#7C7D7D"/>
<path d="M0 17.0464H19.8903V34.0952H0V17.0464Z" fill="#723CE8"/>
<path d="M19.89 17.0464V31.2537H11.3656C9.85835 31.2537 8.41287 30.655 7.34711 29.5892C6.28135 28.5235 5.68262 27.078 5.68262 25.5708V17.0464H19.89Z" fill="#FFBDA5" fill-opacity="0.52"/>
<path d="M28.415 34.0952H19.8906V28.4123C22.6042 28.4123 25.7583 27.9719 27.6478 31.2538C28.1487 32.1171 28.4133 33.0971 28.415 34.0952Z" fill="#2C435E"/>
<path d="M27.6478 31.2538H19.8906V28.4123C22.6042 28.4123 25.7583 27.9719 27.6478 31.2538Z" fill="#374F68"/>
<path d="M12.7865 17.0464V25.5708L9.94498 24.1501L7.10352 25.5708V17.0464H12.7865Z" fill="#F6CCAF"/>
<path d="M53.9881 12.784V19.8877H52.5674C50.3066 19.8877 48.1383 18.9896 46.5397 17.3909C44.9411 15.7923 44.043 13.6241 44.043 11.3633H52.5674C52.9442 11.3633 53.3055 11.513 53.572 11.7794C53.8384 12.0458 53.9881 12.4072 53.9881 12.784Z" fill="#BCDBEF"/>
<path d="M44.0428 12.784C42.9772 12.784 43.1761 12.6846 38.6014 5.04104C38.434 4.7291 38.3892 4.36592 38.4756 4.02263C38.562 3.67935 38.7735 3.38069 39.0686 3.18516C39.3637 2.98962 39.7211 2.91128 40.0709 2.96549C40.4207 3.0197 40.7377 3.20256 40.9598 3.47824L45.222 10.5819C45.3627 10.7956 45.4431 11.0433 45.4547 11.2989C45.4663 11.5545 45.4087 11.8085 45.2879 12.034C45.1671 12.2596 44.9877 12.4483 44.7685 12.5803C44.5494 12.7123 44.2986 12.7827 44.0428 12.784Z" fill="#374F68"/>
<path d="M38.3599 5.6805H34.0977V-0.00244141H38.3599C39.1135 -0.00244141 39.8362 0.296927 40.3691 0.829805C40.902 1.36268 41.2013 2.08542 41.2013 2.83903C41.2013 3.59263 40.902 4.31537 40.3691 4.84825C39.8362 5.38113 39.1135 5.6805 38.3599 5.6805Z" fill="#014D7A"/>
<path d="M28.4149 44.0405V56.8271H9.94531V51.1442C9.94531 49.2602 10.6937 47.4533 12.0259 46.1211C13.3581 44.7889 15.165 44.0405 17.049 44.0405H28.4149Z" fill="#014D7A"/>
<path d="M17.0485 44.0405C15.7735 44.0489 14.5243 44.4002 13.4319 45.0576C12.3395 45.7151 11.4442 46.6544 10.8398 47.7771C12.9425 46.6263 13.1841 46.882 25.5729 46.882V56.8271H28.4143V44.0405H17.0485Z" fill="#BCDBEF"/>
<path d="M12.7866 17.0464V22.7293H11.3659C10.6123 22.7293 9.88954 22.43 9.35666 21.8971C8.82378 21.3642 8.52441 20.6415 8.52441 19.8879V17.0464H12.7866Z" fill="#FFDEC7"/>
<path d="M55.4085 56.8271C55.4076 57.3262 55.2753 57.8162 55.0249 58.2479H50.1092C49.8588 57.8162 49.7265 57.3262 49.7256 56.8271H55.4085Z" fill="#747575"/>
<path d="M49.7259 56.8271C49.7268 57.3262 49.8591 57.8162 50.1095 58.2479H44.1709C44.0848 57.7792 44.042 57.3036 44.043 56.8271H49.7259Z" fill="#2C435E"/>
<path d="M61.0919 56.8271C61.0929 57.3036 61.0501 57.7792 60.9641 58.2479H55.0254C55.2758 57.8162 55.4081 57.3262 55.409 56.8271H61.0919Z" fill="#2C435E"/>
<path d="M17.0491 56.8271C17.0483 57.3262 16.916 57.8162 16.6655 58.2479H11.7498C11.4994 57.8162 11.3671 57.3262 11.3662 56.8271H17.0491Z" fill="#747575"/>
<path d="M11.3656 56.8271C11.3665 57.3262 11.4988 57.8162 11.7492 58.2479H5.8105C5.72441 57.7792 5.68161 57.3036 5.68264 56.8271H11.3656Z" fill="#2C435E"/>
<path d="M22.7316 56.8271C22.7326 57.3036 22.6898 57.7792 22.6037 58.2479H16.665C16.9154 57.8162 17.0478 57.3262 17.0486 56.8271H22.7316Z" fill="#2C435E"/>
</svg>
