<svg width="15" height="14" viewBox="0 0 15 14" fill="none" xmlns="http://www.w3.org/2000/svg">
<path d="M2.03033 0.46967C1.73744 0.176777 1.26256 0.176777 0.96967 0.46967C0.676777 0.762563 0.676777 1.23744 0.96967 1.53033L2.78779 3.34845C1.71479 4.15553 0.779439 5.26407 0.0791796 6.66459C-0.0263932 6.87574 -0.0263932 7.12427 0.0791796 7.33541C1.69784 10.5727 4.57266 12.25 7.5 12.25C8.66637 12.25 9.82439 11.9837 10.8979 11.4586L12.9697 13.5303C13.2626 13.8232 13.7374 13.8232 14.0303 13.5303C14.3232 13.2374 14.3232 12.7626 14.0303 12.4697L2.03033 0.46967ZM9.76033 10.321C9.0257 10.6084 8.26004 10.75 7.5 10.75C5.27341 10.75 2.99854 9.53442 1.59724 7C2.21041 5.89102 2.99083 5.03455 3.86128 4.42194L5.46928 6.02994C5.32871 6.32367 5.25 6.65264 5.25 7.00001C5.25 8.24265 6.25736 9.25001 7.5 9.25001C7.84736 9.25001 8.17634 9.17129 8.47007 9.03073L9.76033 10.321Z" fill="#2A2D34"/>
<path d="M12.4142 8.42161C12.7765 8.00512 13.1088 7.53157 13.4027 7C12.0014 4.46558 9.72656 3.25 7.49997 3.25C7.41597 3.25 7.3319 3.25173 7.24781 3.2552L5.90955 1.91693C6.43306 1.80588 6.96564 1.75 7.49997 1.75C10.4273 1.75 13.3021 3.42726 14.9208 6.66459C15.0264 6.87574 15.0264 7.12426 14.9208 7.33541C14.5128 8.15138 14.025 8.86823 13.4767 9.4841L12.4142 8.42161Z" fill="#2A2D34"/>
</svg>
