<?xml version="1.0" encoding="UTF-8"?>
<svg id="Layer_2" data-name="Layer 2" xmlns="http://www.w3.org/2000/svg" viewBox="0 0 408 480">
  <defs>
    <style>
      .cls-1 {
        fill: #4c95ef;
      }
    </style>
  </defs>
  <g id="Layer_1-2" data-name="Layer 1">
    <g>
      <rect class="cls-1" y="408" width="16" height="16"/>
      <path class="cls-1" d="m401.65,194.09l-47.86-89.73c-6.84-12.86-19.38-21.71-33.79-23.84v-10.51c-.01-9.83-6.54-18.47-16-21.16v-20.84c-.02-15.46-12.54-27.98-28-28h-40.23c-15.46.02-27.98,12.54-28,28v20.9c-9.35,2.77-15.76,11.35-15.77,21.1v21.97c-42.36,17.74-74.8,53.17-88.76,96.93-59.15,18.09-92.44,80.71-74.34,139.86,10.1,33.01,34.86,59.53,67.11,71.86v49.39c.02,16.56,13.44,29.98,30,30h252c16.56-.02,29.98-13.44,30-30v-230.5c-.01-8.86-2.19-17.59-6.35-25.41Zm-149.65-114.09c-14.89-.01-29.71,2.11-44,6.3v-16.3c0-3.31,2.69-6,6-6h84c3.31,0,6,2.69,6,6v10h-52Zm-28.23-52c0-6.62,5.38-11.99,12-12h40.23c6.62,0,11.99,5.38,12,12v20h-64.23v-20ZM40,296c0-53.02,42.98-96,96-96s96,42.98,96,96-42.98,96-96,96c-52.99-.06-95.94-43.01-96-96Zm352,154c0,7.73-6.27,13.99-14,14H126c-7.73,0-13.99-6.27-14-14v-44.6c60.42,13.24,120.14-25.01,133.37-85.44,13.24-60.42-25.01-120.14-85.44-133.37-12.58-2.76-25.55-3.32-38.32-1.67,20.98-53.68,72.75-88.98,130.38-88.92h61.2c11.08-.02,21.27,6.1,26.47,15.89l47.86,89.72c2.93,5.51,4.46,11.65,4.47,17.89v230.5Z"/>
      <path class="cls-1" d="m337.83,161.07c-3.21-5.6-9.17-9.06-15.62-9.07h-24.2c-9.94.01-17.99,8.06-18,18v69.12c0,1.36.2,2.72.59,4.02l21.61,72.03c2.25,7.64,9.28,12.86,17.24,12.83h30.56c9.94-.01,17.99-8.06,18-18v-92.41c0-2.44-.64-4.83-1.85-6.95l-28.33-49.58Zm14.17,148.93c0,1.1-.9,2-2,2h-30.56c-.88,0-1.67-.58-1.92-1.42l-21.52-71.75v-68.83c0-1.1.9-2,2-2h24.2c.72,0,1.38.39,1.74,1.01l28.06,49.12v91.88Z"/>
      <polygon class="cls-1" points="56 160 72 160 72 144 88 144 88 128 72 128 72 112 56 112 56 128 40 128 40 144 56 144 56 160"/>
      <polygon class="cls-1" points="232 392 216 392 216 408 200 408 200 424 216 424 216 440 232 440 232 424 248 424 248 408 232 408 232 392"/>
      <rect class="cls-1" x="216" y="128" width="16" height="16"/>
      <rect class="cls-1" x="240" y="152" width="16" height="16"/>
      <rect class="cls-1" x="192" y="152" width="16" height="16"/>
      <rect class="cls-1" x="216" y="176" width="16" height="16"/>
      <rect class="cls-1" x="24" y="384" width="16" height="16"/>
      <rect class="cls-1" x="48" y="408" width="16" height="16"/>
      <rect class="cls-1" y="408" width="16" height="16"/>
      <rect class="cls-1" x="24" y="432" width="16" height="16"/>
      <path class="cls-1" d="m176,344v-35.06l4.42,2.21c3.61,1.8,8,.64,10.23-2.72l16-24c2.12-3.17,1.7-7.4-1-10.1l-23.8-23.8c-6.74-6.77-15.9-10.57-25.46-10.54-3.6,0-6.76,2.41-7.71,5.88l-.16.57c-1.91,6.92-9.07,10.98-15.99,9.07-4.41-1.22-7.85-4.66-9.07-9.07l-.16-.57c-.95-3.47-4.11-5.88-7.71-5.88-9.55-.03-18.72,3.77-25.46,10.54l-23.8,23.8c-2.7,2.7-3.12,6.92-1,10.1l16,24c2.24,3.36,6.63,4.52,10.23,2.72l4.42-2.21v35.06c0,4.42,3.58,8,8,8h64c4.42,0,8-3.58,8-8Zm-12.21-54.8c-2.36,1.46-3.79,4.03-3.79,6.8v40h-48v-40c0-4.42-3.58-8-8-8-1.24,0-2.47.29-3.58.84l-9.68,4.84-8.44-12.67,19.16-19.16c2.48-2.49,5.58-4.28,8.97-5.19,7.54,14.12,25.11,19.45,39.23,11.91,5.06-2.7,9.21-6.85,11.91-11.91,3.4.91,6.49,2.7,8.97,5.19l19.16,19.16-8.44,12.67-9.68-4.84c-2.48-1.24-5.43-1.1-7.78.35Z"/>
    </g>
  </g>
</svg>