<svg width="20" height="21" viewBox="0 0 20 21" fill="none" xmlns="http://www.w3.org/2000/svg">
<path fill-rule="evenodd" clip-rule="evenodd" d="M14.7864 4.45419C14.5292 1.99203 12.4373 0.0723088 9.89476 0.0723088C8.58982 0.0668444 7.33352 0.579998 6.40668 1.49833C5.60215 2.29547 5.1034 3.34091 4.98577 4.45419H4.98489C3.20349 4.45419 1.70683 5.75535 1.28636 8.01459L0.525472 13.8846C-0.1222 18.1828 1.89911 20.0722 5.855 20.0722H13.9523C17.6106 20.0722 19.7971 17.9425 19.3481 14.1205L18.5626 8.05393C18.0591 5.76659 16.6009 4.45419 14.8579 4.45419H14.7864ZM13.32 4.45419C13.0715 2.79377 11.6324 1.52004 9.8917 1.52003C8.97064 1.51618 8.08598 1.87753 7.43333 2.52419C6.90344 3.04921 6.56192 3.72721 6.45219 4.45419H13.32ZM4.98489 5.90192H14.8579C15.8801 5.90192 16.7781 6.71019 17.1307 8.30215L17.8743 14.0695C18.3168 17.138 16.8438 18.6245 13.9523 18.6245H5.855C2.724 18.6245 1.46043 17.4434 1.96646 14.0844L2.72322 8.23886C3.01239 6.69112 3.92018 5.90192 4.98489 5.90192ZM12.7719 8.58882C13.1737 8.58882 13.4994 8.91291 13.4994 9.31269C13.4994 9.67915 13.2257 9.98201 12.8706 10.0299L12.7719 10.0366H12.7275C12.3257 10.0366 12 9.71247 12 9.31269C12 8.94622 12.2737 8.64336 12.6288 8.59543L12.7275 8.58882H12.7719ZM7.84325 9.31253C7.84325 8.91275 7.51754 8.58867 7.11576 8.58867H7.07137L6.97265 8.59527C6.61756 8.6432 6.34387 8.94606 6.34387 9.31253C6.34387 9.71231 6.66958 10.0364 7.07137 10.0364H7.11576L7.21447 10.0298C7.56956 9.98186 7.84325 9.679 7.84325 9.31253Z" fill="#1C2649"/>
</svg>
