<?xml version="1.0" encoding="UTF-8"?>
<svg id="Layer_2" data-name="Layer 2" xmlns="http://www.w3.org/2000/svg" viewBox="0 0 38 22">
  <defs>
    <style>
      .cls-1 {
        fill: #4c95ef;
      }
    </style>
  </defs>
  <g id="Layer_1-2" data-name="Layer 1">
    <g>
      <path class="cls-1" d="m15,10h3c2.21,0,4,1.79,4,4h2c0-3.31-2.69-6-6-6h-3c-1.65,0-3-1.35-3-3s1.35-3,3-3,3,1.35,3,3h2c0-2.76-2.24-5-5-5s-5,2.24-5,5,2.24,5,5,5Z"/>
      <path class="cls-1" d="m6,18v-2h-1c-1.65,0-3-1.35-3-3s1.35-3,3-3,3,1.35,3,3h2c0-2.76-2.24-5-5-5S0,10.24,0,13s2.24,5,5,5h1Z"/>
      <path class="cls-1" d="m8,18c2.21,0,4,1.79,4,4h2c0-3.31-2.69-6-6-6v2Z"/>
      <path class="cls-1" d="m33,8c-2.76,0-5,2.24-5,5h2c0-1.65,1.35-3,3-3s3,1.35,3,3h2c0-2.76-2.24-5-5-5Z"/>
      <path class="cls-1" d="m33,16h-3c-3.31,0-6,2.69-6,6h2c0-2.21,1.79-4,4-4h3c1.78,0,3.44-.96,4.33-2.5l-1.73-1c-.54.93-1.53,1.5-2.6,1.5Z"/>
      <rect class="cls-1" x="18" y="15" width="2" height="2"/>
      <rect class="cls-1" x="16" y="17" width="2" height="2"/>
      <rect class="cls-1" x="18" y="19" width="2" height="2"/>
      <rect class="cls-1" x="20" y="17" width="2" height="2"/>
      <rect class="cls-1" x="2" width="2" height="2"/>
      <rect class="cls-1" y="2" width="2" height="2"/>
      <rect class="cls-1" x="2" y="4" width="2" height="2"/>
      <rect class="cls-1" x="4" y="2" width="2" height="2"/>
      <rect class="cls-1" x="29" width="2" height="2"/>
      <rect class="cls-1" x="27" y="2" width="2" height="2"/>
      <rect class="cls-1" x="29" y="4" width="2" height="2"/>
      <rect class="cls-1" x="31" y="2" width="2" height="2"/>
    </g>
  </g>
</svg>