<svg width="14" height="15" viewBox="0 0 14 15" fill="none" xmlns="http://www.w3.org/2000/svg">
<path d="M6.59121 0.870117C3.43453 0.870117 0.866211 3.43838 0.866211 6.59498C0.866211 9.75177 3.43453 12.3198 6.59121 12.3198C9.74807 12.3198 12.3162 9.75177 12.3162 6.59498C12.3162 3.43838 9.74807 0.870117 6.59121 0.870117ZM6.59121 11.263C4.01725 11.263 1.92313 9.1689 1.92313 6.59501C1.92313 4.02111 4.01725 1.92702 6.59121 1.92702C9.16517 1.92702 11.2593 4.02109 11.2593 6.59498C11.2593 9.16888 9.16517 11.263 6.59121 11.263Z" fill="#677294"/>
<path d="M13.7283 13.461L10.5679 10.4312C10.3526 10.2248 10.0038 10.2248 9.78846 10.4312C9.57312 10.6375 9.57312 10.9722 9.78846 11.1784L12.9489 14.2082C13.0565 14.3114 13.1975 14.3631 13.3386 14.3631C13.4795 14.3631 13.6206 14.3114 13.7283 14.2082C13.9437 14.002 13.9437 13.6673 13.7283 13.461Z" fill="#677294"/>
</svg>
