<?xml version="1.0" encoding="UTF-8"?>
<svg id="Layer_2" data-name="Layer 2" xmlns="http://www.w3.org/2000/svg" viewBox="0 0 68 45.96">
  <defs>
    <style>
      .cls-1 {
        fill: #4c95ef;
      }
    </style>
  </defs>
  <g id="Layer_1-2" data-name="Layer 1">
    <g>
      <path class="cls-1" d="m26.5,45.96c-.83,0-1.5-.67-1.5-1.5v-21c0-4.69-3.81-8.49-8.5-8.5H1.5c-.83,0-1.5-.67-1.5-1.5s.67-1.5,1.5-1.5h15c6.35,0,11.49,5.15,11.5,11.5v21c0,.83-.67,1.5-1.5,1.5Z"/>
      <path class="cls-1" d="m13.5,26.96c-.4,0-.78-.16-1.06-.44L.44,14.52c-.58-.59-.58-1.53,0-2.12L12.44.4c.61-.56,1.56-.53,2.12.07.54.58.54,1.47,0,2.05L3.62,13.46l10.94,10.94c.59.59.58,1.54,0,2.12-.28.28-.66.44-1.06.44Z"/>
      <path class="cls-1" d="m41.5,45.96c-.83,0-1.5-.67-1.5-1.5v-21c0-6.35,5.15-11.49,11.5-11.5h15c.83,0,1.5.67,1.5,1.5s-.67,1.5-1.5,1.5h-15c-4.69,0-8.49,3.81-8.5,8.5v21c0,.83-.67,1.5-1.5,1.5Z"/>
      <path class="cls-1" d="m54.5,26.96c-.83,0-1.5-.67-1.5-1.5,0-.4.16-.78.44-1.06l10.94-10.94-10.94-10.94c-.56-.61-.53-1.56.07-2.12.58-.54,1.47-.54,2.05,0l12,12c.58.59.58,1.53,0,2.12l-12,12c-.28.28-.66.44-1.06.44Z"/>
    </g>
  </g>
</svg>