<svg width="68" height="55" viewBox="0 0 68 55" fill="none" xmlns="http://www.w3.org/2000/svg">
<path fill-rule="evenodd" clip-rule="evenodd" d="M3.42304 -0.00244141H57.2755L60.5309 11.3917C61.2115 13.7736 59.7439 15.7045 57.2699 15.7045H3.42855C0.947017 15.7045 -0.514381 13.7785 0.167559 11.3917L3.42304 -0.00244141Z" fill="#6CBFEF"/>
<path fill-rule="evenodd" clip-rule="evenodd" d="M5.60938 15.7046H54.9741V50.4843H5.60938V15.7046Z" fill="#014D7A"/>
<path fill-rule="evenodd" clip-rule="evenodd" d="M13.4629 31.4116H47.1206V44.8747H13.4629V31.4116Z" fill="#B4DFFB"/>
<path d="M58.3401 50.4844H2.24385C1.00461 50.4844 0 51.489 0 52.7282C0 53.9675 1.00461 54.9721 2.24385 54.9721H58.3401C59.5794 54.9721 60.584 53.9675 60.584 52.7282C60.584 51.489 59.5794 50.4844 58.3401 50.4844Z" fill="#919191"/>
<path fill-rule="evenodd" clip-rule="evenodd" d="M13.0392 21.875H47.6586L49.3117 27.6609C49.992 30.042 48.5406 31.9723 46.0668 31.9723H14.6309C12.1585 31.9723 10.7036 30.0493 11.3861 27.6609L13.0392 21.875Z" fill="#6CBFEF"/>
<path d="M16.8291 38.9492L21.1075 34.7773" stroke="white" stroke-width="2.24385" stroke-linecap="round"/>
<path d="M43.6621 40.9976H57.4447V54.7802H43.6621V40.9976Z" fill="#FF9670"/>
<path d="M57.4445 40.9976V52.8112H51.5377C49.9711 52.8112 48.4687 52.1889 47.3609 51.0812C46.2532 49.9734 45.6309 48.471 45.6309 46.9044V40.9976H57.4445Z" fill="#FFAA8C"/>
<path d="M48.585 40.9976H52.5228V44.9354H48.585V40.9976Z" fill="#F6CCAF"/>
<path d="M52.5218 40.9976V43.951C51.7385 43.951 50.9873 43.6398 50.4334 43.0859C49.8795 42.5321 49.5684 41.7809 49.5684 40.9976H52.5218Z" fill="#FFDEC7"/>
<path d="M57.6621 44.7803H67.6621V54.7803H57.6621V44.7803Z" fill="#FF9670"/>
<path d="M67.6622 44.7803V53.3517H63.3765C62.2399 53.3517 61.1498 52.9002 60.3461 52.0964C59.5423 51.2927 59.0908 50.2026 59.0908 49.066V44.7803H67.6622Z" fill="#FFAA8C"/>
<path d="M61.2334 44.7803H64.0905V47.6374H61.2334V44.7803Z" fill="#F6CCAF"/>
<path d="M64.0911 44.7803V46.9231C63.5228 46.9231 62.9777 46.6974 62.5759 46.2955C62.174 45.8936 61.9482 45.3486 61.9482 44.7803H64.0911Z" fill="#FFDEC7"/>
</svg>
