<?xml version="1.0" encoding="UTF-8"?>
<svg id="Layer_2" data-name="Layer 2" xmlns="http://www.w3.org/2000/svg" viewBox="0 0 92 92">
  <defs>
    <style>
      .cls-1 {
        fill: #4c95ef;
      }
    </style>
  </defs>
  <g id="Layer_1-2" data-name="Layer 1">
    <path class="cls-1" d="m46,0C20.64,0,0,20.64,0,46s20.64,46,46,46,46-20.64,46-46S71.36,0,46,0Zm0,89c-23.71,0-43-19.29-43-43,0-11.32,4.4-21.62,11.57-29.31l8.26,8.26c-1.74,3.27-.18,8.56,3.95,13.09-6.97.31-12.28,3.69-12.28,7.96s5.32,7.65,12.28,7.96c-2.04,2.23-3.53,4.73-4.23,7.14-.87,3-.46,5.54,1.17,7.18,1.07,1.07,2.54,1.62,4.28,1.62.9,0,1.87-.15,2.9-.45,2.41-.7,4.91-2.19,7.14-4.23.31,6.96,3.69,12.28,7.96,12.28s7.65-5.32,7.96-12.3c3.3,3.01,7,4.68,10.03,4.68,1.13,0,2.15-.25,3.04-.72l8.27,8.27c-7.69,7.17-17.99,11.57-29.31,11.57Zm0-61.64c-.83,0-1.5.67-1.5,1.5v5.01c-.41.05-.81.12-1.21.21-.52-1.28-1.23-2.57-2.13-3.81-.1-.77-.15-1.59-.15-2.44,0-6.09,2.63-10.33,4.99-10.33s4.99,4.24,4.99,10.33c0,.86-.06,1.67-.15,2.45-.91,1.26-1.62,2.55-2.12,3.81-.4-.09-.8-.16-1.22-.21v-5.01c0-.83-.67-1.5-1.5-1.5Zm0,9.41c5.09,0,9.23,4.14,9.23,9.23,0,2-.65,3.85-1.74,5.37l-12.86-12.86c1.51-1.09,3.36-1.74,5.37-1.74Zm9.63,16.73c.48-.62.9-1.28,1.26-1.98,1.86.77,3.77,2.07,5.48,3.78,3.4,3.4,4.82,7.14,4.45,9.39l-11.19-11.19Zm9.07,13.31c-2.25.37-5.99-1.05-9.38-4.45-1.82-1.82-3.07-3.74-3.79-5.48.7-.36,1.36-.78,1.98-1.26l3.55,3.55s0,0,0,0l7.64,7.64Zm-2.97-15.98c-1.24-.89-2.53-1.61-3.81-2.13.09-.4.16-.8.21-1.21h5.01c.83,0,1.5-.67,1.5-1.5s-.67-1.5-1.5-1.5h-5.01c-.05-.41-.12-.81-.21-1.21,1.28-.52,2.57-1.23,3.81-2.13.77-.1,1.59-.15,2.44-.15,6.09,0,10.33,2.63,10.33,4.99s-4.24,4.99-10.33,4.99c-.85,0-1.67-.06-2.44-.15Zm.65-14.16c-1.71,1.71-3.62,3.02-5.48,3.79-.36-.7-.78-1.36-1.26-1.98l3.55-3.55c.59-.59.59-1.54,0-2.12-.59-.59-1.54-.59-2.12,0l-3.55,3.55c-.62-.48-1.28-.9-1.98-1.26.72-1.74,1.97-3.66,3.79-5.48,4.31-4.31,9.17-5.45,10.84-3.78s.53,6.53-3.78,10.84Zm-11.01,16.81c-1.51,1.09-3.36,1.74-5.37,1.74-5.09,0-9.23-4.14-9.23-9.23,0-2,.65-3.85,1.74-5.37l12.86,12.86Zm-5.37,11.15c.83,0,1.5-.67,1.5-1.5v-5.01c.41-.05.82-.12,1.22-.21.5,1.26,1.21,2.54,2.12,3.8.1.78.15,1.59.15,2.45,0,6.09-2.63,10.33-4.99,10.33s-4.99-4.24-4.99-10.33c0-.85.06-1.67.15-2.44.89-1.24,1.61-2.53,2.13-3.81.4.09.8.16,1.21.21v5.01c0,.83.67,1.5,1.5,1.5Zm-17.14-17.14h5.01c.05.41.12.81.21,1.21-1.28.52-2.57,1.23-3.81,2.13-.77.1-1.59.15-2.44.15-6.09,0-10.33-2.63-10.33-4.99s4.24-4.99,10.33-4.99c.85,0,1.66.06,2.44.15,1.24.9,2.53,1.61,3.81,2.13-.09.4-.16.8-.21,1.21h-5.01c-.83,0-1.5.67-1.5,1.5s.67,1.5,1.5,1.5Zm.77,7.82c1.71-1.71,3.62-3.02,5.48-3.78.36.7.78,1.36,1.26,1.98l-3.55,3.55c-.59.59-.59,1.54,0,2.12.29.29.68.44,1.06.44s.77-.15,1.06-.44l3.55-3.55c.61.48,1.28.9,1.98,1.26-.77,1.86-2.07,3.77-3.79,5.48-2.06,2.06-4.41,3.55-6.62,4.19-1.87.55-3.41.39-4.22-.42s-.96-2.34-.41-4.21c.64-2.21,2.13-4.56,4.19-6.62Zm8.87-18.95l-3.55-3.55s0,0,0,0l-7.65-7.65c.23-.04.47-.06.73-.06,2.28,0,5.6,1.46,8.66,4.51,1.71,1.71,3.02,3.62,3.79,5.48-.7.36-1.36.78-1.98,1.26Zm-2.12,2.12c-.48.62-.9,1.28-1.26,1.98-1.86-.77-3.77-2.07-5.48-3.79-3.4-3.4-4.82-7.14-4.45-9.38l11.19,11.19Zm41.06,36.81l-8.26-8.26c1.74-3.27.18-8.56-3.95-13.09,6.97-.31,12.28-3.69,12.28-7.96s-5.32-7.65-12.28-7.96c4.71-5.15,6.08-11.3,3.06-14.31-3.02-3.02-9.17-1.65-14.31,3.06-.31-6.97-3.69-12.28-7.96-12.28s-7.65,5.32-7.96,12.29c-4.53-4.14-9.82-5.69-13.09-3.95l-8.26-8.26c7.69-7.17,17.99-11.57,29.31-11.57,23.71,0,43,19.29,43,43,0,11.32-4.4,21.62-11.57,29.31Z"/>
  </g>
</svg>