<?xml version="1.0" encoding="UTF-8"?>
<svg id="Layer_2" data-name="Layer 2" xmlns="http://www.w3.org/2000/svg" viewBox="0 0 66.34 90">
  <g id="Layer_1-2" data-name="Layer 1">
    <g>
      <path d="m5.49,23.8c0-7.04,2.46-13.9,6.93-19.31.96-1.17.8-2.9-.37-3.86-1.17-.96-2.9-.8-3.86.37C2.91,7.39,0,15.49,0,23.8s2.95,16.53,8.32,22.96c4.54,5.44,7.04,12.34,7.04,19.44s-2.46,13.9-6.93,19.31c-.96,1.17-.8,2.9.37,3.86.51.42,1.13.63,1.74.63.79,0,1.58-.34,2.12-1,5.28-6.4,8.19-14.5,8.19-22.8s-2.95-16.53-8.31-22.96c-4.54-5.44-7.04-12.34-7.04-19.44Z"/>
      <path d="m28.23,23.8c0-7.04,2.46-13.9,6.93-19.31.96-1.17.8-2.9-.37-3.86-1.17-.96-2.9-.8-3.86.37-5.28,6.4-8.19,14.5-8.19,22.8s2.95,16.53,8.31,22.96c4.54,5.44,7.04,12.34,7.04,19.44s-2.46,13.9-6.93,19.31c-.96,1.17-.8,2.9.37,3.86.51.42,1.13.63,1.75.63.79,0,1.58-.34,2.12-1,5.28-6.4,8.19-14.5,8.19-22.8s-2.95-16.53-8.31-22.96c-4.54-5.44-7.04-12.34-7.04-19.44Z"/>
      <path d="m58.03,43.24c-4.54-5.44-7.04-12.34-7.04-19.44s2.46-13.9,6.93-19.31c.96-1.17.8-2.9-.37-3.86-1.17-.96-2.9-.8-3.86.37-5.28,6.4-8.19,14.5-8.19,22.8s2.95,16.53,8.31,22.96c4.54,5.44,7.04,12.34,7.04,19.44s-2.46,13.89-6.93,19.31c-.96,1.17-.8,2.9.37,3.86.51.42,1.13.63,1.74.63.79,0,1.57-.34,2.12-1,5.28-6.4,8.19-14.5,8.19-22.8,0-8.38-2.95-16.53-8.32-22.96Z"/>
    </g>
  </g>
</svg>